<?xml version="1.0" encoding="utf-8"?>
<svg xmlns="http://www.w3.org/2000/svg" xmlns:xlink="http://www.w3.org/1999/xlink" width="600" height="400" viewBox="0 0 2400 1600">
<defs>
  <clipPath id="clip710">
    <rect x="0" y="0" width="2400" height="1600"/>
  </clipPath>
</defs>
<path clip-path="url(#clip710)" d="M0 1600 L2400 1600 L2400 0 L0 0  Z" fill="#ffffff" fill-rule="evenodd" fill-opacity="1"/>
<defs>
  <clipPath id="clip711">
    <rect x="480" y="0" width="1681" height="1600"/>
  </clipPath>
</defs>
<path clip-path="url(#clip710)" d="M159.422 1486.45 L2352.76 1486.45 L2352.76 47.2441 L159.422 47.2441  Z" fill="#ffffff" fill-rule="evenodd" fill-opacity="1"/>
<defs>
  <clipPath id="clip712">
    <rect x="159" y="47" width="2194" height="1440"/>
  </clipPath>
</defs>
<polyline clip-path="url(#clip712)" style="stroke:#000000; stroke-linecap:round; stroke-linejoin:round; stroke-width:2; stroke-opacity:0.1; fill:none" points="159.422,1486.45 159.422,47.2441 "/>
<polyline clip-path="url(#clip712)" style="stroke:#000000; stroke-linecap:round; stroke-linejoin:round; stroke-width:2; stroke-opacity:0.1; fill:none" points="524.978,1486.45 524.978,47.2441 "/>
<polyline clip-path="url(#clip712)" style="stroke:#000000; stroke-linecap:round; stroke-linejoin:round; stroke-width:2; stroke-opacity:0.1; fill:none" points="890.533,1486.45 890.533,47.2441 "/>
<polyline clip-path="url(#clip712)" style="stroke:#000000; stroke-linecap:round; stroke-linejoin:round; stroke-width:2; stroke-opacity:0.1; fill:none" points="1256.09,1486.45 1256.09,47.2441 "/>
<polyline clip-path="url(#clip712)" style="stroke:#000000; stroke-linecap:round; stroke-linejoin:round; stroke-width:2; stroke-opacity:0.1; fill:none" points="1621.64,1486.45 1621.64,47.2441 "/>
<polyline clip-path="url(#clip712)" style="stroke:#000000; stroke-linecap:round; stroke-linejoin:round; stroke-width:2; stroke-opacity:0.1; fill:none" points="1987.2,1486.45 1987.2,47.2441 "/>
<polyline clip-path="url(#clip712)" style="stroke:#000000; stroke-linecap:round; stroke-linejoin:round; stroke-width:2; stroke-opacity:0.1; fill:none" points="2352.76,1486.45 2352.76,47.2441 "/>
<polyline clip-path="url(#clip712)" style="stroke:#000000; stroke-linecap:round; stroke-linejoin:round; stroke-width:2; stroke-opacity:0.1; fill:none" points="159.422,1254.24 2352.76,1254.24 "/>
<polyline clip-path="url(#clip712)" style="stroke:#000000; stroke-linecap:round; stroke-linejoin:round; stroke-width:2; stroke-opacity:0.1; fill:none" points="159.422,952.489 2352.76,952.489 "/>
<polyline clip-path="url(#clip712)" style="stroke:#000000; stroke-linecap:round; stroke-linejoin:round; stroke-width:2; stroke-opacity:0.1; fill:none" points="159.422,650.741 2352.76,650.741 "/>
<polyline clip-path="url(#clip712)" style="stroke:#000000; stroke-linecap:round; stroke-linejoin:round; stroke-width:2; stroke-opacity:0.1; fill:none" points="159.422,348.992 2352.76,348.992 "/>
<polyline clip-path="url(#clip712)" style="stroke:#000000; stroke-linecap:round; stroke-linejoin:round; stroke-width:2; stroke-opacity:0.1; fill:none" points="159.422,47.2441 2352.76,47.2441 "/>
<polyline clip-path="url(#clip710)" style="stroke:#000000; stroke-linecap:round; stroke-linejoin:round; stroke-width:4; stroke-opacity:1; fill:none" points="159.422,1486.45 2352.76,1486.45 "/>
<polyline clip-path="url(#clip710)" style="stroke:#000000; stroke-linecap:round; stroke-linejoin:round; stroke-width:4; stroke-opacity:1; fill:none" points="159.422,1486.45 159.422,1467.55 "/>
<polyline clip-path="url(#clip710)" style="stroke:#000000; stroke-linecap:round; stroke-linejoin:round; stroke-width:4; stroke-opacity:1; fill:none" points="524.978,1486.45 524.978,1467.55 "/>
<polyline clip-path="url(#clip710)" style="stroke:#000000; stroke-linecap:round; stroke-linejoin:round; stroke-width:4; stroke-opacity:1; fill:none" points="890.533,1486.45 890.533,1467.55 "/>
<polyline clip-path="url(#clip710)" style="stroke:#000000; stroke-linecap:round; stroke-linejoin:round; stroke-width:4; stroke-opacity:1; fill:none" points="1256.09,1486.45 1256.09,1467.55 "/>
<polyline clip-path="url(#clip710)" style="stroke:#000000; stroke-linecap:round; stroke-linejoin:round; stroke-width:4; stroke-opacity:1; fill:none" points="1621.64,1486.45 1621.64,1467.55 "/>
<polyline clip-path="url(#clip710)" style="stroke:#000000; stroke-linecap:round; stroke-linejoin:round; stroke-width:4; stroke-opacity:1; fill:none" points="1987.2,1486.45 1987.2,1467.55 "/>
<polyline clip-path="url(#clip710)" style="stroke:#000000; stroke-linecap:round; stroke-linejoin:round; stroke-width:4; stroke-opacity:1; fill:none" points="2352.76,1486.45 2352.76,1467.55 "/>
<path clip-path="url(#clip710)" d="M108.034 1544.91 L124.353 1544.91 L124.353 1548.85 L102.409 1548.85 L102.409 1544.91 Q105.071 1542.16 109.654 1537.53 Q114.26 1532.88 115.441 1531.53 Q117.686 1529.01 118.566 1527.27 Q119.469 1525.51 119.469 1523.82 Q119.469 1521.07 117.524 1519.33 Q115.603 1517.6 112.501 1517.6 Q110.302 1517.6 107.848 1518.36 Q105.418 1519.13 102.64 1520.68 L102.64 1515.95 Q105.464 1514.82 107.918 1514.24 Q110.372 1513.66 112.409 1513.66 Q117.779 1513.66 120.973 1516.35 Q124.168 1519.03 124.168 1523.52 Q124.168 1525.65 123.358 1527.57 Q122.571 1529.47 120.464 1532.07 Q119.885 1532.74 116.784 1535.95 Q113.682 1539.15 108.034 1544.91 Z" fill="#000000" fill-rule="nonzero" fill-opacity="1" /><path clip-path="url(#clip710)" d="M144.168 1517.37 Q140.557 1517.37 138.728 1520.93 Q136.922 1524.47 136.922 1531.6 Q136.922 1538.71 138.728 1542.27 Q140.557 1545.82 144.168 1545.82 Q147.802 1545.82 149.608 1542.27 Q151.436 1538.71 151.436 1531.6 Q151.436 1524.47 149.608 1520.93 Q147.802 1517.37 144.168 1517.37 M144.168 1513.66 Q149.978 1513.66 153.033 1518.27 Q156.112 1522.85 156.112 1531.6 Q156.112 1540.33 153.033 1544.94 Q149.978 1549.52 144.168 1549.52 Q138.358 1549.52 135.279 1544.94 Q132.223 1540.33 132.223 1531.6 Q132.223 1522.85 135.279 1518.27 Q138.358 1513.66 144.168 1513.66 Z" fill="#000000" fill-rule="nonzero" fill-opacity="1" /><path clip-path="url(#clip710)" d="M174.33 1517.37 Q170.719 1517.37 168.89 1520.93 Q167.084 1524.47 167.084 1531.6 Q167.084 1538.71 168.89 1542.27 Q170.719 1545.82 174.33 1545.82 Q177.964 1545.82 179.769 1542.27 Q181.598 1538.71 181.598 1531.6 Q181.598 1524.47 179.769 1520.93 Q177.964 1517.37 174.33 1517.37 M174.33 1513.66 Q180.14 1513.66 183.195 1518.27 Q186.274 1522.85 186.274 1531.6 Q186.274 1540.33 183.195 1544.94 Q180.14 1549.52 174.33 1549.52 Q168.519 1549.52 165.441 1544.94 Q162.385 1540.33 162.385 1531.6 Q162.385 1522.85 165.441 1518.27 Q168.519 1513.66 174.33 1513.66 Z" fill="#000000" fill-rule="nonzero" fill-opacity="1" /><path clip-path="url(#clip710)" d="M204.491 1517.37 Q200.88 1517.37 199.052 1520.93 Q197.246 1524.47 197.246 1531.6 Q197.246 1538.71 199.052 1542.27 Q200.88 1545.82 204.491 1545.82 Q208.126 1545.82 209.931 1542.27 Q211.76 1538.71 211.76 1531.6 Q211.76 1524.47 209.931 1520.93 Q208.126 1517.37 204.491 1517.37 M204.491 1513.66 Q210.302 1513.66 213.357 1518.27 Q216.436 1522.85 216.436 1531.6 Q216.436 1540.33 213.357 1544.94 Q210.302 1549.52 204.491 1549.52 Q198.681 1549.52 195.603 1544.94 Q192.547 1540.33 192.547 1531.6 Q192.547 1522.85 195.603 1518.27 Q198.681 1513.66 204.491 1513.66 Z" fill="#000000" fill-rule="nonzero" fill-opacity="1" /><path clip-path="url(#clip710)" d="M473.589 1544.91 L489.909 1544.91 L489.909 1548.85 L467.964 1548.85 L467.964 1544.91 Q470.626 1542.16 475.21 1537.53 Q479.816 1532.88 480.997 1531.53 Q483.242 1529.01 484.122 1527.27 Q485.024 1525.51 485.024 1523.82 Q485.024 1521.07 483.08 1519.33 Q481.159 1517.6 478.057 1517.6 Q475.858 1517.6 473.404 1518.36 Q470.974 1519.13 468.196 1520.68 L468.196 1515.95 Q471.02 1514.82 473.474 1514.24 Q475.927 1513.66 477.964 1513.66 Q483.335 1513.66 486.529 1516.35 Q489.723 1519.03 489.723 1523.52 Q489.723 1525.65 488.913 1527.57 Q488.126 1529.47 486.02 1532.07 Q485.441 1532.74 482.339 1535.95 Q479.237 1539.15 473.589 1544.91 Z" fill="#000000" fill-rule="nonzero" fill-opacity="1" /><path clip-path="url(#clip710)" d="M503.751 1544.91 L520.071 1544.91 L520.071 1548.85 L498.126 1548.85 L498.126 1544.91 Q500.788 1542.16 505.372 1537.53 Q509.978 1532.88 511.159 1531.53 Q513.404 1529.01 514.284 1527.27 Q515.186 1525.51 515.186 1523.82 Q515.186 1521.07 513.242 1519.33 Q511.321 1517.6 508.219 1517.6 Q506.02 1517.6 503.566 1518.36 Q501.135 1519.13 498.358 1520.68 L498.358 1515.95 Q501.182 1514.82 503.635 1514.24 Q506.089 1513.66 508.126 1513.66 Q513.496 1513.66 516.691 1516.35 Q519.885 1519.03 519.885 1523.52 Q519.885 1525.65 519.075 1527.57 Q518.288 1529.47 516.182 1532.07 Q515.603 1532.74 512.501 1535.95 Q509.399 1539.15 503.751 1544.91 Z" fill="#000000" fill-rule="nonzero" fill-opacity="1" /><path clip-path="url(#clip710)" d="M539.885 1517.37 Q536.274 1517.37 534.445 1520.93 Q532.64 1524.47 532.64 1531.6 Q532.64 1538.71 534.445 1542.27 Q536.274 1545.82 539.885 1545.82 Q543.519 1545.82 545.325 1542.27 Q547.154 1538.71 547.154 1531.6 Q547.154 1524.47 545.325 1520.93 Q543.519 1517.37 539.885 1517.37 M539.885 1513.66 Q545.695 1513.66 548.751 1518.27 Q551.83 1522.85 551.83 1531.6 Q551.83 1540.33 548.751 1544.94 Q545.695 1549.52 539.885 1549.52 Q534.075 1549.52 530.996 1544.94 Q527.941 1540.33 527.941 1531.6 Q527.941 1522.85 530.996 1518.27 Q534.075 1513.66 539.885 1513.66 Z" fill="#000000" fill-rule="nonzero" fill-opacity="1" /><path clip-path="url(#clip710)" d="M570.047 1517.37 Q566.436 1517.37 564.607 1520.93 Q562.802 1524.47 562.802 1531.6 Q562.802 1538.71 564.607 1542.27 Q566.436 1545.82 570.047 1545.82 Q573.681 1545.82 575.487 1542.27 Q577.316 1538.71 577.316 1531.6 Q577.316 1524.47 575.487 1520.93 Q573.681 1517.37 570.047 1517.37 M570.047 1513.66 Q575.857 1513.66 578.913 1518.27 Q581.991 1522.85 581.991 1531.6 Q581.991 1540.33 578.913 1544.94 Q575.857 1549.52 570.047 1549.52 Q564.237 1549.52 561.158 1544.94 Q558.103 1540.33 558.103 1531.6 Q558.103 1522.85 561.158 1518.27 Q564.237 1513.66 570.047 1513.66 Z" fill="#000000" fill-rule="nonzero" fill-opacity="1" /><path clip-path="url(#clip710)" d="M839.145 1544.91 L855.464 1544.91 L855.464 1548.85 L833.52 1548.85 L833.52 1544.91 Q836.182 1542.16 840.765 1537.53 Q845.372 1532.88 846.552 1531.53 Q848.798 1529.01 849.677 1527.27 Q850.58 1525.51 850.58 1523.82 Q850.58 1521.07 848.636 1519.33 Q846.714 1517.6 843.612 1517.6 Q841.413 1517.6 838.96 1518.36 Q836.529 1519.13 833.751 1520.68 L833.751 1515.95 Q836.575 1514.82 839.029 1514.24 Q841.483 1513.66 843.52 1513.66 Q848.89 1513.66 852.085 1516.35 Q855.279 1519.03 855.279 1523.52 Q855.279 1525.65 854.469 1527.57 Q853.682 1529.47 851.575 1532.07 Q850.997 1532.74 847.895 1535.95 Q844.793 1539.15 839.145 1544.91 Z" fill="#000000" fill-rule="nonzero" fill-opacity="1" /><path clip-path="url(#clip710)" d="M878.126 1518.36 L866.321 1536.81 L878.126 1536.81 L878.126 1518.36 M876.899 1514.29 L882.779 1514.29 L882.779 1536.81 L887.709 1536.81 L887.709 1540.7 L882.779 1540.7 L882.779 1548.85 L878.126 1548.85 L878.126 1540.7 L862.524 1540.7 L862.524 1536.19 L876.899 1514.29 Z" fill="#000000" fill-rule="nonzero" fill-opacity="1" /><path clip-path="url(#clip710)" d="M905.441 1517.37 Q901.83 1517.37 900.001 1520.93 Q898.195 1524.47 898.195 1531.6 Q898.195 1538.71 900.001 1542.27 Q901.83 1545.82 905.441 1545.82 Q909.075 1545.82 910.881 1542.27 Q912.709 1538.71 912.709 1531.6 Q912.709 1524.47 910.881 1520.93 Q909.075 1517.37 905.441 1517.37 M905.441 1513.66 Q911.251 1513.66 914.307 1518.27 Q917.385 1522.85 917.385 1531.6 Q917.385 1540.33 914.307 1544.94 Q911.251 1549.52 905.441 1549.52 Q899.631 1549.52 896.552 1544.94 Q893.496 1540.33 893.496 1531.6 Q893.496 1522.85 896.552 1518.27 Q899.631 1513.66 905.441 1513.66 Z" fill="#000000" fill-rule="nonzero" fill-opacity="1" /><path clip-path="url(#clip710)" d="M935.603 1517.37 Q931.992 1517.37 930.163 1520.93 Q928.357 1524.47 928.357 1531.6 Q928.357 1538.71 930.163 1542.27 Q931.992 1545.82 935.603 1545.82 Q939.237 1545.82 941.042 1542.27 Q942.871 1538.71 942.871 1531.6 Q942.871 1524.47 941.042 1520.93 Q939.237 1517.37 935.603 1517.37 M935.603 1513.66 Q941.413 1513.66 944.468 1518.27 Q947.547 1522.85 947.547 1531.6 Q947.547 1540.33 944.468 1544.94 Q941.413 1549.52 935.603 1549.52 Q929.793 1549.52 926.714 1544.94 Q923.658 1540.33 923.658 1531.6 Q923.658 1522.85 926.714 1518.27 Q929.793 1513.66 935.603 1513.66 Z" fill="#000000" fill-rule="nonzero" fill-opacity="1" /><path clip-path="url(#clip710)" d="M1204.7 1544.91 L1221.02 1544.91 L1221.02 1548.85 L1199.08 1548.85 L1199.08 1544.91 Q1201.74 1542.16 1206.32 1537.53 Q1210.93 1532.88 1212.11 1531.53 Q1214.35 1529.01 1215.23 1527.27 Q1216.14 1525.51 1216.14 1523.82 Q1216.14 1521.07 1214.19 1519.33 Q1212.27 1517.6 1209.17 1517.6 Q1206.97 1517.6 1204.52 1518.36 Q1202.08 1519.13 1199.31 1520.68 L1199.31 1515.95 Q1202.13 1514.82 1204.58 1514.24 Q1207.04 1513.66 1209.08 1513.66 Q1214.45 1513.66 1217.64 1516.35 Q1220.83 1519.03 1220.83 1523.52 Q1220.83 1525.65 1220.02 1527.57 Q1219.24 1529.47 1217.13 1532.07 Q1216.55 1532.74 1213.45 1535.95 Q1210.35 1539.15 1204.7 1544.91 Z" fill="#000000" fill-rule="nonzero" fill-opacity="1" /><path clip-path="url(#clip710)" d="M1241.41 1529.7 Q1238.27 1529.7 1236.41 1531.86 Q1234.58 1534.01 1234.58 1537.76 Q1234.58 1541.49 1236.41 1543.66 Q1238.27 1545.82 1241.41 1545.82 Q1244.56 1545.82 1246.39 1543.66 Q1248.24 1541.49 1248.24 1537.76 Q1248.24 1534.01 1246.39 1531.86 Q1244.56 1529.7 1241.41 1529.7 M1250.7 1515.05 L1250.7 1519.31 Q1248.94 1518.48 1247.13 1518.04 Q1245.35 1517.6 1243.59 1517.6 Q1238.96 1517.6 1236.51 1520.72 Q1234.08 1523.85 1233.73 1530.17 Q1235.09 1528.15 1237.15 1527.09 Q1239.21 1526 1241.69 1526 Q1246.9 1526 1249.91 1529.17 Q1252.94 1532.32 1252.94 1537.76 Q1252.94 1543.08 1249.79 1546.3 Q1246.64 1549.52 1241.41 1549.52 Q1235.42 1549.52 1232.25 1544.94 Q1229.08 1540.33 1229.08 1531.6 Q1229.08 1523.41 1232.96 1518.55 Q1236.85 1513.66 1243.4 1513.66 Q1245.16 1513.66 1246.95 1514.01 Q1248.75 1514.36 1250.7 1515.05 Z" fill="#000000" fill-rule="nonzero" fill-opacity="1" /><path clip-path="url(#clip710)" d="M1271 1517.37 Q1267.39 1517.37 1265.56 1520.93 Q1263.75 1524.47 1263.75 1531.6 Q1263.75 1538.71 1265.56 1542.27 Q1267.39 1545.82 1271 1545.82 Q1274.63 1545.82 1276.44 1542.27 Q1278.26 1538.71 1278.26 1531.6 Q1278.26 1524.47 1276.44 1520.93 Q1274.63 1517.37 1271 1517.37 M1271 1513.66 Q1276.81 1513.66 1279.86 1518.27 Q1282.94 1522.85 1282.94 1531.6 Q1282.94 1540.33 1279.86 1544.94 Q1276.81 1549.52 1271 1549.52 Q1265.19 1549.52 1262.11 1544.94 Q1259.05 1540.33 1259.05 1531.6 Q1259.05 1522.85 1262.11 1518.27 Q1265.19 1513.66 1271 1513.66 Z" fill="#000000" fill-rule="nonzero" fill-opacity="1" /><path clip-path="url(#clip710)" d="M1301.16 1517.37 Q1297.55 1517.37 1295.72 1520.93 Q1293.91 1524.47 1293.91 1531.6 Q1293.91 1538.71 1295.72 1542.27 Q1297.55 1545.82 1301.16 1545.82 Q1304.79 1545.82 1306.6 1542.27 Q1308.43 1538.71 1308.43 1531.6 Q1308.43 1524.47 1306.6 1520.93 Q1304.79 1517.37 1301.16 1517.37 M1301.16 1513.66 Q1306.97 1513.66 1310.02 1518.27 Q1313.1 1522.85 1313.1 1531.6 Q1313.1 1540.33 1310.02 1544.94 Q1306.97 1549.52 1301.16 1549.52 Q1295.35 1549.52 1292.27 1544.94 Q1289.21 1540.33 1289.21 1531.6 Q1289.21 1522.85 1292.27 1518.27 Q1295.35 1513.66 1301.16 1513.66 Z" fill="#000000" fill-rule="nonzero" fill-opacity="1" /><path clip-path="url(#clip710)" d="M1570.26 1544.91 L1586.58 1544.91 L1586.58 1548.85 L1564.63 1548.85 L1564.63 1544.91 Q1567.29 1542.16 1571.88 1537.53 Q1576.48 1532.88 1577.66 1531.53 Q1579.91 1529.01 1580.79 1527.27 Q1581.69 1525.51 1581.69 1523.82 Q1581.69 1521.07 1579.75 1519.33 Q1577.83 1517.6 1574.72 1517.6 Q1572.52 1517.6 1570.07 1518.36 Q1567.64 1519.13 1564.86 1520.68 L1564.86 1515.95 Q1567.69 1514.82 1570.14 1514.24 Q1572.59 1513.66 1574.63 1513.66 Q1580 1513.66 1583.2 1516.35 Q1586.39 1519.03 1586.39 1523.52 Q1586.39 1525.65 1585.58 1527.57 Q1584.79 1529.47 1582.69 1532.07 Q1582.11 1532.74 1579.01 1535.95 Q1575.9 1539.15 1570.26 1544.91 Z" fill="#000000" fill-rule="nonzero" fill-opacity="1" /><path clip-path="url(#clip710)" d="M1606.39 1532.44 Q1603.06 1532.44 1601.14 1534.22 Q1599.24 1536 1599.24 1539.13 Q1599.24 1542.25 1601.14 1544.03 Q1603.06 1545.82 1606.39 1545.82 Q1609.72 1545.82 1611.64 1544.03 Q1613.57 1542.23 1613.57 1539.13 Q1613.57 1536 1611.64 1534.22 Q1609.75 1532.44 1606.39 1532.44 M1601.71 1530.45 Q1598.71 1529.7 1597.02 1527.64 Q1595.35 1525.58 1595.35 1522.62 Q1595.35 1518.48 1598.29 1516.07 Q1601.25 1513.66 1606.39 1513.66 Q1611.55 1513.66 1614.49 1516.07 Q1617.43 1518.48 1617.43 1522.62 Q1617.43 1525.58 1615.74 1527.64 Q1614.08 1529.7 1611.09 1530.45 Q1614.47 1531.23 1616.34 1533.52 Q1618.24 1535.82 1618.24 1539.13 Q1618.24 1544.15 1615.16 1546.83 Q1612.11 1549.52 1606.39 1549.52 Q1600.67 1549.52 1597.59 1546.83 Q1594.54 1544.15 1594.54 1539.13 Q1594.54 1535.82 1596.44 1533.52 Q1598.33 1531.23 1601.71 1530.45 M1600 1523.06 Q1600 1525.75 1601.67 1527.25 Q1603.36 1528.76 1606.39 1528.76 Q1609.4 1528.76 1611.09 1527.25 Q1612.8 1525.75 1612.8 1523.06 Q1612.8 1520.38 1611.09 1518.87 Q1609.4 1517.37 1606.39 1517.37 Q1603.36 1517.37 1601.67 1518.87 Q1600 1520.38 1600 1523.06 Z" fill="#000000" fill-rule="nonzero" fill-opacity="1" /><path clip-path="url(#clip710)" d="M1636.55 1517.37 Q1632.94 1517.37 1631.11 1520.93 Q1629.31 1524.47 1629.31 1531.6 Q1629.31 1538.71 1631.11 1542.27 Q1632.94 1545.82 1636.55 1545.82 Q1640.19 1545.82 1641.99 1542.27 Q1643.82 1538.71 1643.82 1531.6 Q1643.82 1524.47 1641.99 1520.93 Q1640.19 1517.37 1636.55 1517.37 M1636.55 1513.66 Q1642.36 1513.66 1645.42 1518.27 Q1648.5 1522.85 1648.5 1531.6 Q1648.5 1540.33 1645.42 1544.94 Q1642.36 1549.52 1636.55 1549.52 Q1630.74 1549.52 1627.66 1544.94 Q1624.61 1540.33 1624.61 1531.6 Q1624.61 1522.85 1627.66 1518.27 Q1630.74 1513.66 1636.55 1513.66 Z" fill="#000000" fill-rule="nonzero" fill-opacity="1" /><path clip-path="url(#clip710)" d="M1666.71 1517.37 Q1663.1 1517.37 1661.27 1520.93 Q1659.47 1524.47 1659.47 1531.6 Q1659.47 1538.71 1661.27 1542.27 Q1663.1 1545.82 1666.71 1545.82 Q1670.35 1545.82 1672.15 1542.27 Q1673.98 1538.71 1673.98 1531.6 Q1673.98 1524.47 1672.15 1520.93 Q1670.35 1517.37 1666.71 1517.37 M1666.71 1513.66 Q1672.52 1513.66 1675.58 1518.27 Q1678.66 1522.85 1678.66 1531.6 Q1678.66 1540.33 1675.58 1544.94 Q1672.52 1549.52 1666.71 1549.52 Q1660.9 1549.52 1657.83 1544.94 Q1654.77 1540.33 1654.77 1531.6 Q1654.77 1522.85 1657.83 1518.27 Q1660.9 1513.66 1666.71 1513.66 Z" fill="#000000" fill-rule="nonzero" fill-opacity="1" /><path clip-path="url(#clip710)" d="M1945.88 1530.21 Q1949.24 1530.93 1951.11 1533.2 Q1953.01 1535.47 1953.01 1538.8 Q1953.01 1543.92 1949.49 1546.72 Q1945.97 1549.52 1939.49 1549.52 Q1937.32 1549.52 1935 1549.08 Q1932.71 1548.66 1930.26 1547.81 L1930.26 1543.29 Q1932.2 1544.43 1934.52 1545.01 Q1936.83 1545.58 1939.35 1545.58 Q1943.75 1545.58 1946.04 1543.85 Q1948.36 1542.11 1948.36 1538.8 Q1948.36 1535.75 1946.21 1534.03 Q1944.08 1532.3 1940.26 1532.3 L1936.23 1532.3 L1936.23 1528.45 L1940.44 1528.45 Q1943.89 1528.45 1945.72 1527.09 Q1947.55 1525.7 1947.55 1523.11 Q1947.55 1520.45 1945.65 1519.03 Q1943.77 1517.6 1940.26 1517.6 Q1938.33 1517.6 1936.14 1518.01 Q1933.94 1518.43 1931.3 1519.31 L1931.3 1515.14 Q1933.96 1514.4 1936.27 1514.03 Q1938.61 1513.66 1940.67 1513.66 Q1946 1513.66 1949.1 1516.09 Q1952.2 1518.5 1952.2 1522.62 Q1952.2 1525.49 1950.56 1527.48 Q1948.91 1529.45 1945.88 1530.21 Z" fill="#000000" fill-rule="nonzero" fill-opacity="1" /><path clip-path="url(#clip710)" d="M1971.88 1517.37 Q1968.27 1517.37 1966.44 1520.93 Q1964.63 1524.47 1964.63 1531.6 Q1964.63 1538.71 1966.44 1542.27 Q1968.27 1545.82 1971.88 1545.82 Q1975.51 1545.82 1977.32 1542.27 Q1979.14 1538.71 1979.14 1531.6 Q1979.14 1524.47 1977.32 1520.93 Q1975.51 1517.37 1971.88 1517.37 M1971.88 1513.66 Q1977.69 1513.66 1980.74 1518.27 Q1983.82 1522.85 1983.82 1531.6 Q1983.82 1540.33 1980.74 1544.94 Q1977.69 1549.52 1971.88 1549.52 Q1966.07 1549.52 1962.99 1544.94 Q1959.93 1540.33 1959.93 1531.6 Q1959.93 1522.85 1962.99 1518.27 Q1966.07 1513.66 1971.88 1513.66 Z" fill="#000000" fill-rule="nonzero" fill-opacity="1" /><path clip-path="url(#clip710)" d="M2002.04 1517.37 Q1998.43 1517.37 1996.6 1520.93 Q1994.79 1524.47 1994.79 1531.6 Q1994.79 1538.71 1996.6 1542.27 Q1998.43 1545.82 2002.04 1545.82 Q2005.67 1545.82 2007.48 1542.27 Q2009.31 1538.71 2009.31 1531.6 Q2009.31 1524.47 2007.48 1520.93 Q2005.67 1517.37 2002.04 1517.37 M2002.04 1513.66 Q2007.85 1513.66 2010.9 1518.27 Q2013.98 1522.85 2013.98 1531.6 Q2013.98 1540.33 2010.9 1544.94 Q2007.85 1549.52 2002.04 1549.52 Q1996.23 1549.52 1993.15 1544.94 Q1990.09 1540.33 1990.09 1531.6 Q1990.09 1522.85 1993.15 1518.27 Q1996.23 1513.66 2002.04 1513.66 Z" fill="#000000" fill-rule="nonzero" fill-opacity="1" /><path clip-path="url(#clip710)" d="M2032.2 1517.37 Q2028.59 1517.37 2026.76 1520.93 Q2024.95 1524.47 2024.95 1531.6 Q2024.95 1538.71 2026.76 1542.27 Q2028.59 1545.82 2032.2 1545.82 Q2035.83 1545.82 2037.64 1542.27 Q2039.47 1538.71 2039.47 1531.6 Q2039.47 1524.47 2037.64 1520.93 Q2035.83 1517.37 2032.2 1517.37 M2032.2 1513.66 Q2038.01 1513.66 2041.07 1518.27 Q2044.14 1522.85 2044.14 1531.6 Q2044.14 1540.33 2041.07 1544.94 Q2038.01 1549.52 2032.2 1549.52 Q2026.39 1549.52 2023.31 1544.94 Q2020.26 1540.33 2020.26 1531.6 Q2020.26 1522.85 2023.31 1518.27 Q2026.39 1513.66 2032.2 1513.66 Z" fill="#000000" fill-rule="nonzero" fill-opacity="1" /><path clip-path="url(#clip710)" d="M2311.44 1530.21 Q2314.79 1530.93 2316.67 1533.2 Q2318.57 1535.47 2318.57 1538.8 Q2318.57 1543.92 2315.05 1546.72 Q2311.53 1549.52 2305.05 1549.52 Q2302.87 1549.52 2300.56 1549.08 Q2298.27 1548.66 2295.81 1547.81 L2295.81 1543.29 Q2297.76 1544.43 2300.07 1545.01 Q2302.39 1545.58 2304.91 1545.58 Q2309.31 1545.58 2311.6 1543.85 Q2313.91 1542.11 2313.91 1538.8 Q2313.91 1535.75 2311.76 1534.03 Q2309.63 1532.3 2305.81 1532.3 L2301.78 1532.3 L2301.78 1528.45 L2306 1528.45 Q2309.45 1528.45 2311.27 1527.09 Q2313.1 1525.7 2313.1 1523.11 Q2313.1 1520.45 2311.21 1519.03 Q2309.33 1517.6 2305.81 1517.6 Q2303.89 1517.6 2301.69 1518.01 Q2299.49 1518.43 2296.85 1519.31 L2296.85 1515.14 Q2299.52 1514.4 2301.83 1514.03 Q2304.17 1513.66 2306.23 1513.66 Q2311.55 1513.66 2314.65 1516.09 Q2317.76 1518.5 2317.76 1522.62 Q2317.76 1525.49 2316.11 1527.48 Q2314.47 1529.45 2311.44 1530.21 Z" fill="#000000" fill-rule="nonzero" fill-opacity="1" /><path clip-path="url(#clip710)" d="M2331.46 1544.91 L2347.78 1544.91 L2347.78 1548.85 L2325.83 1548.85 L2325.83 1544.91 Q2328.5 1542.16 2333.08 1537.53 Q2337.69 1532.88 2338.87 1531.53 Q2341.11 1529.01 2341.99 1527.27 Q2342.89 1525.51 2342.89 1523.82 Q2342.89 1521.07 2340.95 1519.33 Q2339.03 1517.6 2335.93 1517.6 Q2333.73 1517.6 2331.27 1518.36 Q2328.84 1519.13 2326.07 1520.68 L2326.07 1515.95 Q2328.89 1514.82 2331.34 1514.24 Q2333.8 1513.66 2335.83 1513.66 Q2341.21 1513.66 2344.4 1516.35 Q2347.59 1519.03 2347.59 1523.52 Q2347.59 1525.65 2346.78 1527.57 Q2346 1529.47 2343.89 1532.07 Q2343.31 1532.74 2340.21 1535.95 Q2337.11 1539.15 2331.46 1544.91 Z" fill="#000000" fill-rule="nonzero" fill-opacity="1" /><path clip-path="url(#clip710)" d="M2367.59 1517.37 Q2363.98 1517.37 2362.15 1520.93 Q2360.35 1524.47 2360.35 1531.6 Q2360.35 1538.71 2362.15 1542.27 Q2363.98 1545.82 2367.59 1545.82 Q2371.23 1545.82 2373.03 1542.27 Q2374.86 1538.71 2374.86 1531.6 Q2374.86 1524.47 2373.03 1520.93 Q2371.23 1517.37 2367.59 1517.37 M2367.59 1513.66 Q2373.4 1513.66 2376.46 1518.27 Q2379.54 1522.85 2379.54 1531.6 Q2379.54 1540.33 2376.46 1544.94 Q2373.4 1549.52 2367.59 1549.52 Q2361.78 1549.52 2358.7 1544.94 Q2355.65 1540.33 2355.65 1531.6 Q2355.65 1522.85 2358.7 1518.27 Q2361.78 1513.66 2367.59 1513.66 Z" fill="#000000" fill-rule="nonzero" fill-opacity="1" /><path clip-path="url(#clip710)" d="M2397.76 1517.37 Q2394.14 1517.37 2392.32 1520.93 Q2390.51 1524.47 2390.51 1531.6 Q2390.51 1538.71 2392.32 1542.27 Q2394.14 1545.82 2397.76 1545.82 Q2401.39 1545.82 2403.2 1542.27 Q2405.02 1538.71 2405.02 1531.6 Q2405.02 1524.47 2403.2 1520.93 Q2401.39 1517.37 2397.76 1517.37 M2397.76 1513.66 Q2403.57 1513.66 2406.62 1518.27 Q2409.7 1522.85 2409.7 1531.6 Q2409.7 1540.33 2406.62 1544.94 Q2403.57 1549.52 2397.76 1549.52 Q2391.95 1549.52 2388.87 1544.94 Q2385.81 1540.33 2385.81 1531.6 Q2385.81 1522.85 2388.87 1518.27 Q2391.95 1513.66 2397.76 1513.66 Z" fill="#000000" fill-rule="nonzero" fill-opacity="1" /><polyline clip-path="url(#clip710)" style="stroke:#000000; stroke-linecap:round; stroke-linejoin:round; stroke-width:4; stroke-opacity:1; fill:none" points="159.422,1486.45 159.422,47.2441 "/>
<polyline clip-path="url(#clip710)" style="stroke:#000000; stroke-linecap:round; stroke-linejoin:round; stroke-width:4; stroke-opacity:1; fill:none" points="159.422,1254.24 178.32,1254.24 "/>
<polyline clip-path="url(#clip710)" style="stroke:#000000; stroke-linecap:round; stroke-linejoin:round; stroke-width:4; stroke-opacity:1; fill:none" points="159.422,952.489 178.32,952.489 "/>
<polyline clip-path="url(#clip710)" style="stroke:#000000; stroke-linecap:round; stroke-linejoin:round; stroke-width:4; stroke-opacity:1; fill:none" points="159.422,650.741 178.32,650.741 "/>
<polyline clip-path="url(#clip710)" style="stroke:#000000; stroke-linecap:round; stroke-linejoin:round; stroke-width:4; stroke-opacity:1; fill:none" points="159.422,348.992 178.32,348.992 "/>
<polyline clip-path="url(#clip710)" style="stroke:#000000; stroke-linecap:round; stroke-linejoin:round; stroke-width:4; stroke-opacity:1; fill:none" points="159.422,47.2441 178.32,47.2441 "/>
<path clip-path="url(#clip710)" d="M52.7167 1274.03 L60.3555 1274.03 L60.3555 1247.66 L52.0454 1249.33 L52.0454 1245.07 L60.3092 1243.4 L64.9851 1243.4 L64.9851 1274.03 L72.624 1274.03 L72.624 1277.96 L52.7167 1277.96 L52.7167 1274.03 Z" fill="#000000" fill-rule="nonzero" fill-opacity="1" /><path clip-path="url(#clip710)" d="M92.0683 1246.48 Q88.4572 1246.48 86.6285 1250.05 Q84.823 1253.59 84.823 1260.72 Q84.823 1267.83 86.6285 1271.39 Q88.4572 1274.93 92.0683 1274.93 Q95.7025 1274.93 97.5081 1271.39 Q99.3368 1267.83 99.3368 1260.72 Q99.3368 1253.59 97.5081 1250.05 Q95.7025 1246.48 92.0683 1246.48 M92.0683 1242.78 Q97.8784 1242.78 100.934 1247.39 Q104.013 1251.97 104.013 1260.72 Q104.013 1269.45 100.934 1274.05 Q97.8784 1278.64 92.0683 1278.64 Q86.2581 1278.64 83.1795 1274.05 Q80.1239 1269.45 80.1239 1260.72 Q80.1239 1251.97 83.1795 1247.39 Q86.2581 1242.78 92.0683 1242.78 Z" fill="#000000" fill-rule="nonzero" fill-opacity="1" /><path clip-path="url(#clip710)" d="M113.717 1224.98 Q110.783 1224.98 109.298 1227.87 Q107.831 1230.75 107.831 1236.54 Q107.831 1242.32 109.298 1245.21 Q110.783 1248.09 113.717 1248.09 Q116.67 1248.09 118.137 1245.21 Q119.623 1242.32 119.623 1236.54 Q119.623 1230.75 118.137 1227.87 Q116.67 1224.98 113.717 1224.98 M113.717 1221.97 Q118.438 1221.97 120.921 1225.71 Q123.422 1229.43 123.422 1236.54 Q123.422 1243.63 120.921 1247.38 Q118.438 1251.1 113.717 1251.1 Q108.997 1251.1 106.495 1247.38 Q104.013 1243.63 104.013 1236.54 Q104.013 1229.43 106.495 1225.71 Q108.997 1221.97 113.717 1221.97 Z" fill="#000000" fill-rule="nonzero" fill-opacity="1" /><path clip-path="url(#clip710)" d="M55.4062 972.281 L63.045 972.281 L63.045 945.916 L54.7349 947.582 L54.7349 943.323 L62.9987 941.657 L67.6746 941.657 L67.6746 972.281 L75.3135 972.281 L75.3135 976.217 L55.4062 976.217 L55.4062 972.281 Z" fill="#000000" fill-rule="nonzero" fill-opacity="1" /><path clip-path="url(#clip710)" d="M94.7578 944.735 Q91.1467 944.735 89.318 948.3 Q87.5125 951.842 87.5125 958.971 Q87.5125 966.078 89.318 969.642 Q91.1467 973.184 94.7578 973.184 Q98.392 973.184 100.198 969.642 Q102.026 966.078 102.026 958.971 Q102.026 951.842 100.198 948.3 Q98.392 944.735 94.7578 944.735 M94.7578 941.032 Q100.568 941.032 103.623 945.638 Q106.702 950.221 106.702 958.971 Q106.702 967.698 103.623 972.304 Q100.568 976.888 94.7578 976.888 Q88.9477 976.888 85.869 972.304 Q82.8134 967.698 82.8134 958.971 Q82.8134 950.221 85.869 945.638 Q88.9477 941.032 94.7578 941.032 Z" fill="#000000" fill-rule="nonzero" fill-opacity="1" /><path clip-path="url(#clip710)" d="M107.248 945.609 L113.454 945.609 L113.454 924.187 L106.702 925.541 L106.702 922.08 L113.417 920.726 L117.216 920.726 L117.216 945.609 L123.422 945.609 L123.422 948.806 L107.248 948.806 L107.248 945.609 Z" fill="#000000" fill-rule="nonzero" fill-opacity="1" /><path clip-path="url(#clip710)" d="M54.2965 670.533 L61.9354 670.533 L61.9354 644.167 L53.6252 645.834 L53.6252 641.575 L61.8891 639.908 L66.565 639.908 L66.565 670.533 L74.2038 670.533 L74.2038 674.468 L54.2965 674.468 L54.2965 670.533 Z" fill="#000000" fill-rule="nonzero" fill-opacity="1" /><path clip-path="url(#clip710)" d="M93.6481 642.987 Q90.0371 642.987 88.2084 646.552 Q86.4028 650.093 86.4028 657.223 Q86.4028 664.329 88.2084 667.894 Q90.0371 671.436 93.6481 671.436 Q97.2824 671.436 99.0879 667.894 Q100.917 664.329 100.917 657.223 Q100.917 650.093 99.0879 646.552 Q97.2824 642.987 93.6481 642.987 M93.6481 639.283 Q99.4583 639.283 102.514 643.89 Q105.593 648.473 105.593 657.223 Q105.593 665.95 102.514 670.556 Q99.4583 675.14 93.6481 675.14 Q87.838 675.14 84.7593 670.556 Q81.7038 665.95 81.7038 657.223 Q81.7038 648.473 84.7593 643.89 Q87.838 639.283 93.6481 639.283 Z" fill="#000000" fill-rule="nonzero" fill-opacity="1" /><path clip-path="url(#clip710)" d="M110.163 643.861 L123.422 643.861 L123.422 647.058 L105.593 647.058 L105.593 643.861 Q107.755 641.622 111.479 637.861 Q115.222 634.08 116.181 632.99 Q118.006 630.94 118.72 629.529 Q119.454 628.1 119.454 626.727 Q119.454 624.489 117.874 623.078 Q116.313 621.667 113.793 621.667 Q112.006 621.667 110.012 622.288 Q108.038 622.909 105.781 624.169 L105.781 620.332 Q108.075 619.41 110.069 618.94 Q112.062 618.47 113.717 618.47 Q118.081 618.47 120.676 620.652 Q123.272 622.833 123.272 626.482 Q123.272 628.212 122.614 629.773 Q121.974 631.316 120.263 633.422 Q119.792 633.968 117.272 636.582 Q114.752 639.177 110.163 643.861 Z" fill="#000000" fill-rule="nonzero" fill-opacity="1" /><path clip-path="url(#clip710)" d="M53.6382 368.785 L61.2771 368.785 L61.2771 342.419 L52.9669 344.086 L52.9669 339.827 L61.2308 338.16 L65.9067 338.16 L65.9067 368.785 L73.5455 368.785 L73.5455 372.72 L53.6382 372.72 L53.6382 368.785 Z" fill="#000000" fill-rule="nonzero" fill-opacity="1" /><path clip-path="url(#clip710)" d="M92.9899 341.239 Q89.3788 341.239 87.5501 344.803 Q85.7445 348.345 85.7445 355.475 Q85.7445 362.581 87.5501 366.146 Q89.3788 369.688 92.9899 369.688 Q96.6241 369.688 98.4297 366.146 Q100.258 362.581 100.258 355.475 Q100.258 348.345 98.4297 344.803 Q96.6241 341.239 92.9899 341.239 M92.9899 337.535 Q98.8 337.535 101.856 342.141 Q104.934 346.725 104.934 355.475 Q104.934 364.201 101.856 368.808 Q98.8 373.391 92.9899 373.391 Q87.1797 373.391 84.101 368.808 Q81.0455 364.201 81.0455 355.475 Q81.0455 346.725 84.101 342.141 Q87.1797 337.535 92.9899 337.535 Z" fill="#000000" fill-rule="nonzero" fill-opacity="1" /><path clip-path="url(#clip710)" d="M117.63 330.169 Q120.357 330.752 121.88 332.596 Q123.422 334.439 123.422 337.147 Q123.422 341.304 120.564 343.579 Q117.705 345.855 112.439 345.855 Q110.671 345.855 108.79 345.498 Q106.928 345.159 104.934 344.463 L104.934 340.796 Q106.514 341.717 108.395 342.187 Q110.276 342.658 112.326 342.658 Q115.899 342.658 117.761 341.247 Q119.642 339.837 119.642 337.147 Q119.642 334.664 117.893 333.273 Q116.162 331.862 113.059 331.862 L109.787 331.862 L109.787 328.74 L113.21 328.74 Q116.012 328.74 117.498 327.63 Q118.984 326.502 118.984 324.395 Q118.984 322.232 117.441 321.085 Q115.918 319.919 113.059 319.919 Q111.498 319.919 109.711 320.258 Q107.925 320.596 105.781 321.311 L105.781 317.925 Q107.943 317.324 109.824 317.023 Q111.724 316.722 113.398 316.722 Q117.724 316.722 120.244 318.697 Q122.764 320.653 122.764 324 Q122.764 326.333 121.429 327.95 Q120.093 329.549 117.63 330.169 Z" fill="#000000" fill-rule="nonzero" fill-opacity="1" /><path clip-path="url(#clip710)" d="M51.6634 67.0365 L59.3023 67.0365 L59.3023 40.6709 L50.9921 42.3376 L50.9921 38.0784 L59.256 36.4117 L63.9319 36.4117 L63.9319 67.0365 L71.5707 67.0365 L71.5707 70.9717 L51.6634 70.9717 L51.6634 67.0365 Z" fill="#000000" fill-rule="nonzero" fill-opacity="1" /><path clip-path="url(#clip710)" d="M91.0151 39.4904 Q87.404 39.4904 85.5753 43.0552 Q83.7697 46.5968 83.7697 53.7264 Q83.7697 60.8329 85.5753 64.3977 Q87.404 67.9393 91.0151 67.9393 Q94.6493 67.9393 96.4548 64.3977 Q98.2835 60.8329 98.2835 53.7264 Q98.2835 46.5968 96.4548 43.0552 Q94.6493 39.4904 91.0151 39.4904 M91.0151 35.7867 Q96.8252 35.7867 99.8808 40.3932 Q102.959 44.9765 102.959 53.7264 Q102.959 62.4532 99.8808 67.0597 Q96.8252 71.643 91.0151 71.643 Q85.2049 71.643 82.1262 67.0597 Q79.0707 62.4532 79.0707 53.7264 Q79.0707 44.9765 82.1262 40.3932 Q85.2049 35.7867 91.0151 35.7867 Z" fill="#000000" fill-rule="nonzero" fill-opacity="1" /><path clip-path="url(#clip710)" d="M115.636 18.7915 L106.044 33.7813 L115.636 33.7813 L115.636 18.7915 M114.639 15.4813 L119.416 15.4813 L119.416 33.7813 L123.422 33.7813 L123.422 36.941 L119.416 36.941 L119.416 43.5613 L115.636 43.5613 L115.636 36.941 L102.959 36.941 L102.959 33.2734 L114.639 15.4813 Z" fill="#000000" fill-rule="nonzero" fill-opacity="1" /><path clip-path="url(#clip712)" d="Mnan nan L-3496.13 2762.98 L-3404.74 2762.98 Lnan nan Lnan nan Lnan nan  Z" fill="#009af9" fill-rule="evenodd" fill-opacity="1"/>
<polyline clip-path="url(#clip712)" style="stroke:#000000; stroke-linecap:round; stroke-linejoin:round; stroke-width:4; stroke-opacity:1; fill:none" points="-3496.13,2762.98 -3404.74,2762.98 "/>
<path clip-path="url(#clip712)" d="Mnan nan L-3404.74 2762.98 L-3313.36 2762.98 Lnan nan Lnan nan Lnan nan  Z" fill="#009af9" fill-rule="evenodd" fill-opacity="1"/>
<polyline clip-path="url(#clip712)" style="stroke:#000000; stroke-linecap:round; stroke-linejoin:round; stroke-width:4; stroke-opacity:1; fill:none" points="-3404.74,2762.98 -3313.36,2762.98 "/>
<path clip-path="url(#clip712)" d="Mnan nan L-3313.36 2762.98 L-3221.97 2762.98 Lnan nan Lnan nan Lnan nan  Z" fill="#009af9" fill-rule="evenodd" fill-opacity="1"/>
<polyline clip-path="url(#clip712)" style="stroke:#000000; stroke-linecap:round; stroke-linejoin:round; stroke-width:4; stroke-opacity:1; fill:none" points="-3313.36,2762.98 -3221.97,2762.98 "/>
<path clip-path="url(#clip712)" d="Mnan nan L-3221.97 2762.98 L-3130.58 2762.98 Lnan nan Lnan nan Lnan nan  Z" fill="#009af9" fill-rule="evenodd" fill-opacity="1"/>
<polyline clip-path="url(#clip712)" style="stroke:#000000; stroke-linecap:round; stroke-linejoin:round; stroke-width:4; stroke-opacity:1; fill:none" points="-3221.97,2762.98 -3130.58,2762.98 "/>
<path clip-path="url(#clip712)" d="M-3130.58 729.086 L-3130.58 2762.98 L-3039.19 2762.98 L-3039.19 729.086 L-3130.58 729.086 L-3130.58 729.086  Z" fill="#009af9" fill-rule="evenodd" fill-opacity="1"/>
<polyline clip-path="url(#clip712)" style="stroke:#000000; stroke-linecap:round; stroke-linejoin:round; stroke-width:4; stroke-opacity:1; fill:none" points="-3130.58,729.086 -3130.58,2762.98 -3039.19,2762.98 -3039.19,729.086 -3130.58,729.086 "/>
<path clip-path="url(#clip712)" d="M-3039.19 468.091 L-3039.19 2762.98 L-2947.8 2762.98 L-2947.8 468.091 L-3039.19 468.091 L-3039.19 468.091  Z" fill="#009af9" fill-rule="evenodd" fill-opacity="1"/>
<polyline clip-path="url(#clip712)" style="stroke:#000000; stroke-linecap:round; stroke-linejoin:round; stroke-width:4; stroke-opacity:1; fill:none" points="-3039.19,468.091 -3039.19,2762.98 -2947.8,2762.98 -2947.8,468.091 -3039.19,468.091 "/>
<path clip-path="url(#clip712)" d="M-2947.8 372.466 L-2947.8 2762.98 L-2856.41 2762.98 L-2856.41 372.466 L-2947.8 372.466 L-2947.8 372.466  Z" fill="#009af9" fill-rule="evenodd" fill-opacity="1"/>
<polyline clip-path="url(#clip712)" style="stroke:#000000; stroke-linecap:round; stroke-linejoin:round; stroke-width:4; stroke-opacity:1; fill:none" points="-2947.8,372.466 -2947.8,2762.98 -2856.41,2762.98 -2856.41,372.466 -2947.8,372.466 "/>
<path clip-path="url(#clip712)" d="M-2856.41 323.256 L-2856.41 2762.98 L-2765.02 2762.98 L-2765.02 323.256 L-2856.41 323.256 L-2856.41 323.256  Z" fill="#009af9" fill-rule="evenodd" fill-opacity="1"/>
<polyline clip-path="url(#clip712)" style="stroke:#000000; stroke-linecap:round; stroke-linejoin:round; stroke-width:4; stroke-opacity:1; fill:none" points="-2856.41,323.256 -2856.41,2762.98 -2765.02,2762.98 -2765.02,323.256 -2856.41,323.256 "/>
<path clip-path="url(#clip712)" d="M-2765.02 282.891 L-2765.02 2762.98 L-2673.63 2762.98 L-2673.63 282.891 L-2765.02 282.891 L-2765.02 282.891  Z" fill="#009af9" fill-rule="evenodd" fill-opacity="1"/>
<polyline clip-path="url(#clip712)" style="stroke:#000000; stroke-linecap:round; stroke-linejoin:round; stroke-width:4; stroke-opacity:1; fill:none" points="-2765.02,282.891 -2765.02,2762.98 -2673.63,2762.98 -2673.63,282.891 -2765.02,282.891 "/>
<path clip-path="url(#clip712)" d="M-2673.63 252.326 L-2673.63 2762.98 L-2582.24 2762.98 L-2582.24 252.326 L-2673.63 252.326 L-2673.63 252.326  Z" fill="#009af9" fill-rule="evenodd" fill-opacity="1"/>
<polyline clip-path="url(#clip712)" style="stroke:#000000; stroke-linecap:round; stroke-linejoin:round; stroke-width:4; stroke-opacity:1; fill:none" points="-2673.63,252.326 -2673.63,2762.98 -2582.24,2762.98 -2582.24,252.326 -2673.63,252.326 "/>
<path clip-path="url(#clip712)" d="M-2582.24 225.041 L-2582.24 2762.98 L-2490.86 2762.98 L-2490.86 225.041 L-2582.24 225.041 L-2582.24 225.041  Z" fill="#009af9" fill-rule="evenodd" fill-opacity="1"/>
<polyline clip-path="url(#clip712)" style="stroke:#000000; stroke-linecap:round; stroke-linejoin:round; stroke-width:4; stroke-opacity:1; fill:none" points="-2582.24,225.041 -2582.24,2762.98 -2490.86,2762.98 -2490.86,225.041 -2582.24,225.041 "/>
<path clip-path="url(#clip712)" d="M-2490.86 208.205 L-2490.86 2762.98 L-2399.47 2762.98 L-2399.47 208.205 L-2490.86 208.205 L-2490.86 208.205  Z" fill="#009af9" fill-rule="evenodd" fill-opacity="1"/>
<polyline clip-path="url(#clip712)" style="stroke:#000000; stroke-linecap:round; stroke-linejoin:round; stroke-width:4; stroke-opacity:1; fill:none" points="-2490.86,208.205 -2490.86,2762.98 -2399.47,2762.98 -2399.47,208.205 -2490.86,208.205 "/>
<path clip-path="url(#clip712)" d="M-2399.47 192.611 L-2399.47 2762.98 L-2308.08 2762.98 L-2308.08 192.611 L-2399.47 192.611 L-2399.47 192.611  Z" fill="#009af9" fill-rule="evenodd" fill-opacity="1"/>
<polyline clip-path="url(#clip712)" style="stroke:#000000; stroke-linecap:round; stroke-linejoin:round; stroke-width:4; stroke-opacity:1; fill:none" points="-2399.47,192.611 -2399.47,2762.98 -2308.08,2762.98 -2308.08,192.611 -2399.47,192.611 "/>
<path clip-path="url(#clip712)" d="M-2308.08 178.178 L-2308.08 2762.98 L-2216.69 2762.98 L-2216.69 178.178 L-2308.08 178.178 L-2308.08 178.178  Z" fill="#009af9" fill-rule="evenodd" fill-opacity="1"/>
<polyline clip-path="url(#clip712)" style="stroke:#000000; stroke-linecap:round; stroke-linejoin:round; stroke-width:4; stroke-opacity:1; fill:none" points="-2308.08,178.178 -2308.08,2762.98 -2216.69,2762.98 -2216.69,178.178 -2308.08,178.178 "/>
<path clip-path="url(#clip712)" d="M-2216.69 168.209 L-2216.69 2762.98 L-2125.3 2762.98 L-2125.3 168.209 L-2216.69 168.209 L-2216.69 168.209  Z" fill="#009af9" fill-rule="evenodd" fill-opacity="1"/>
<polyline clip-path="url(#clip712)" style="stroke:#000000; stroke-linecap:round; stroke-linejoin:round; stroke-width:4; stroke-opacity:1; fill:none" points="-2216.69,168.209 -2216.69,2762.98 -2125.3,2762.98 -2125.3,168.209 -2216.69,168.209 "/>
<path clip-path="url(#clip712)" d="M-2125.3 159.562 L-2125.3 2762.98 L-2033.91 2762.98 L-2033.91 159.562 L-2125.3 159.562 L-2125.3 159.562  Z" fill="#009af9" fill-rule="evenodd" fill-opacity="1"/>
<polyline clip-path="url(#clip712)" style="stroke:#000000; stroke-linecap:round; stroke-linejoin:round; stroke-width:4; stroke-opacity:1; fill:none" points="-2125.3,159.562 -2125.3,2762.98 -2033.91,2762.98 -2033.91,159.562 -2125.3,159.562 "/>
<path clip-path="url(#clip712)" d="M-2033.91 153.557 L-2033.91 2762.98 L-1942.52 2762.98 L-1942.52 153.557 L-2033.91 153.557 L-2033.91 153.557  Z" fill="#009af9" fill-rule="evenodd" fill-opacity="1"/>
<polyline clip-path="url(#clip712)" style="stroke:#000000; stroke-linecap:round; stroke-linejoin:round; stroke-width:4; stroke-opacity:1; fill:none" points="-2033.91,153.557 -2033.91,2762.98 -1942.52,2762.98 -1942.52,153.557 -2033.91,153.557 "/>
<path clip-path="url(#clip712)" d="M-1942.52 152.061 L-1942.52 2762.98 L-1851.13 2762.98 L-1851.13 152.061 L-1942.52 152.061 L-1942.52 152.061  Z" fill="#009af9" fill-rule="evenodd" fill-opacity="1"/>
<polyline clip-path="url(#clip712)" style="stroke:#000000; stroke-linecap:round; stroke-linejoin:round; stroke-width:4; stroke-opacity:1; fill:none" points="-1942.52,152.061 -1942.52,2762.98 -1851.13,2762.98 -1851.13,152.061 -1942.52,152.061 "/>
<path clip-path="url(#clip712)" d="M-1851.13 149.749 L-1851.13 2762.98 L-1759.74 2762.98 L-1759.74 149.749 L-1851.13 149.749 L-1851.13 149.749  Z" fill="#009af9" fill-rule="evenodd" fill-opacity="1"/>
<polyline clip-path="url(#clip712)" style="stroke:#000000; stroke-linecap:round; stroke-linejoin:round; stroke-width:4; stroke-opacity:1; fill:none" points="-1851.13,149.749 -1851.13,2762.98 -1759.74,2762.98 -1759.74,149.749 -1851.13,149.749 "/>
<path clip-path="url(#clip712)" d="M-1759.74 153.587 L-1759.74 2762.98 L-1668.36 2762.98 L-1668.36 153.587 L-1759.74 153.587 L-1759.74 153.587  Z" fill="#009af9" fill-rule="evenodd" fill-opacity="1"/>
<polyline clip-path="url(#clip712)" style="stroke:#000000; stroke-linecap:round; stroke-linejoin:round; stroke-width:4; stroke-opacity:1; fill:none" points="-1759.74,153.587 -1759.74,2762.98 -1668.36,2762.98 -1668.36,153.587 -1759.74,153.587 "/>
<path clip-path="url(#clip712)" d="M-1668.36 148.523 L-1668.36 2762.98 L-1576.97 2762.98 L-1576.97 148.523 L-1668.36 148.523 L-1668.36 148.523  Z" fill="#009af9" fill-rule="evenodd" fill-opacity="1"/>
<polyline clip-path="url(#clip712)" style="stroke:#000000; stroke-linecap:round; stroke-linejoin:round; stroke-width:4; stroke-opacity:1; fill:none" points="-1668.36,148.523 -1668.36,2762.98 -1576.97,2762.98 -1576.97,148.523 -1668.36,148.523 "/>
<path clip-path="url(#clip712)" d="M-1576.97 153.145 L-1576.97 2762.98 L-1485.58 2762.98 L-1485.58 153.145 L-1576.97 153.145 L-1576.97 153.145  Z" fill="#009af9" fill-rule="evenodd" fill-opacity="1"/>
<polyline clip-path="url(#clip712)" style="stroke:#000000; stroke-linecap:round; stroke-linejoin:round; stroke-width:4; stroke-opacity:1; fill:none" points="-1576.97,153.145 -1576.97,2762.98 -1485.58,2762.98 -1485.58,153.145 -1576.97,153.145 "/>
<path clip-path="url(#clip712)" d="M-1485.58 152.003 L-1485.58 2762.98 L-1394.19 2762.98 L-1394.19 152.003 L-1485.58 152.003 L-1485.58 152.003  Z" fill="#009af9" fill-rule="evenodd" fill-opacity="1"/>
<polyline clip-path="url(#clip712)" style="stroke:#000000; stroke-linecap:round; stroke-linejoin:round; stroke-width:4; stroke-opacity:1; fill:none" points="-1485.58,152.003 -1485.58,2762.98 -1394.19,2762.98 -1394.19,152.003 -1485.58,152.003 "/>
<path clip-path="url(#clip712)" d="M-1394.19 157.418 L-1394.19 2762.98 L-1302.8 2762.98 L-1302.8 157.418 L-1394.19 157.418 L-1394.19 157.418  Z" fill="#009af9" fill-rule="evenodd" fill-opacity="1"/>
<polyline clip-path="url(#clip712)" style="stroke:#000000; stroke-linecap:round; stroke-linejoin:round; stroke-width:4; stroke-opacity:1; fill:none" points="-1394.19,157.418 -1394.19,2762.98 -1302.8,2762.98 -1302.8,157.418 -1394.19,157.418 "/>
<path clip-path="url(#clip712)" d="M-1302.8 160.647 L-1302.8 2762.98 L-1211.41 2762.98 L-1211.41 160.647 L-1302.8 160.647 L-1302.8 160.647  Z" fill="#009af9" fill-rule="evenodd" fill-opacity="1"/>
<polyline clip-path="url(#clip712)" style="stroke:#000000; stroke-linecap:round; stroke-linejoin:round; stroke-width:4; stroke-opacity:1; fill:none" points="-1302.8,160.647 -1302.8,2762.98 -1211.41,2762.98 -1211.41,160.647 -1302.8,160.647 "/>
<path clip-path="url(#clip712)" d="M-1211.41 164.022 L-1211.41 2762.98 L-1120.02 2762.98 L-1120.02 164.022 L-1211.41 164.022 L-1211.41 164.022  Z" fill="#009af9" fill-rule="evenodd" fill-opacity="1"/>
<polyline clip-path="url(#clip712)" style="stroke:#000000; stroke-linecap:round; stroke-linejoin:round; stroke-width:4; stroke-opacity:1; fill:none" points="-1211.41,164.022 -1211.41,2762.98 -1120.02,2762.98 -1120.02,164.022 -1211.41,164.022 "/>
<path clip-path="url(#clip712)" d="M-1120.02 169.836 L-1120.02 2762.98 L-1028.63 2762.98 L-1028.63 169.836 L-1120.02 169.836 L-1120.02 169.836  Z" fill="#009af9" fill-rule="evenodd" fill-opacity="1"/>
<polyline clip-path="url(#clip712)" style="stroke:#000000; stroke-linecap:round; stroke-linejoin:round; stroke-width:4; stroke-opacity:1; fill:none" points="-1120.02,169.836 -1120.02,2762.98 -1028.63,2762.98 -1028.63,169.836 -1120.02,169.836 "/>
<path clip-path="url(#clip712)" d="M-1028.63 181.786 L-1028.63 2762.98 L-937.245 2762.98 L-937.245 181.786 L-1028.63 181.786 L-1028.63 181.786  Z" fill="#009af9" fill-rule="evenodd" fill-opacity="1"/>
<polyline clip-path="url(#clip712)" style="stroke:#000000; stroke-linecap:round; stroke-linejoin:round; stroke-width:4; stroke-opacity:1; fill:none" points="-1028.63,181.786 -1028.63,2762.98 -937.245,2762.98 -937.245,181.786 -1028.63,181.786 "/>
<path clip-path="url(#clip712)" d="M-937.245 188.312 L-937.245 2762.98 L-845.856 2762.98 L-845.856 188.312 L-937.245 188.312 L-937.245 188.312  Z" fill="#009af9" fill-rule="evenodd" fill-opacity="1"/>
<polyline clip-path="url(#clip712)" style="stroke:#000000; stroke-linecap:round; stroke-linejoin:round; stroke-width:4; stroke-opacity:1; fill:none" points="-937.245,188.312 -937.245,2762.98 -845.856,2762.98 -845.856,188.312 -937.245,188.312 "/>
<path clip-path="url(#clip712)" d="M-845.856 201.743 L-845.856 2762.98 L-754.467 2762.98 L-754.467 201.743 L-845.856 201.743 L-845.856 201.743  Z" fill="#009af9" fill-rule="evenodd" fill-opacity="1"/>
<polyline clip-path="url(#clip712)" style="stroke:#000000; stroke-linecap:round; stroke-linejoin:round; stroke-width:4; stroke-opacity:1; fill:none" points="-845.856,201.743 -845.856,2762.98 -754.467,2762.98 -754.467,201.743 -845.856,201.743 "/>
<path clip-path="url(#clip712)" d="M-754.467 215.522 L-754.467 2762.98 L-663.078 2762.98 L-663.078 215.522 L-754.467 215.522 L-754.467 215.522  Z" fill="#009af9" fill-rule="evenodd" fill-opacity="1"/>
<polyline clip-path="url(#clip712)" style="stroke:#000000; stroke-linecap:round; stroke-linejoin:round; stroke-width:4; stroke-opacity:1; fill:none" points="-754.467,215.522 -754.467,2762.98 -663.078,2762.98 -663.078,215.522 -754.467,215.522 "/>
<path clip-path="url(#clip712)" d="M-663.078 226.268 L-663.078 2762.98 L-571.689 2762.98 L-571.689 226.268 L-663.078 226.268 L-663.078 226.268  Z" fill="#009af9" fill-rule="evenodd" fill-opacity="1"/>
<polyline clip-path="url(#clip712)" style="stroke:#000000; stroke-linecap:round; stroke-linejoin:round; stroke-width:4; stroke-opacity:1; fill:none" points="-663.078,226.268 -663.078,2762.98 -571.689,2762.98 -571.689,226.268 -663.078,226.268 "/>
<path clip-path="url(#clip712)" d="M-571.689 243.657 L-571.689 2762.98 L-480.3 2762.98 L-480.3 243.657 L-571.689 243.657 L-571.689 243.657  Z" fill="#009af9" fill-rule="evenodd" fill-opacity="1"/>
<polyline clip-path="url(#clip712)" style="stroke:#000000; stroke-linecap:round; stroke-linejoin:round; stroke-width:4; stroke-opacity:1; fill:none" points="-571.689,243.657 -571.689,2762.98 -480.3,2762.98 -480.3,243.657 -571.689,243.657 "/>
<path clip-path="url(#clip712)" d="M-480.3 260.604 L-480.3 2762.98 L-388.911 2762.98 L-388.911 260.604 L-480.3 260.604 L-480.3 260.604  Z" fill="#009af9" fill-rule="evenodd" fill-opacity="1"/>
<polyline clip-path="url(#clip712)" style="stroke:#000000; stroke-linecap:round; stroke-linejoin:round; stroke-width:4; stroke-opacity:1; fill:none" points="-480.3,260.604 -480.3,2762.98 -388.911,2762.98 -388.911,260.604 -480.3,260.604 "/>
<path clip-path="url(#clip712)" d="M-388.911 277.087 L-388.911 2762.98 L-297.522 2762.98 L-297.522 277.087 L-388.911 277.087 L-388.911 277.087  Z" fill="#009af9" fill-rule="evenodd" fill-opacity="1"/>
<polyline clip-path="url(#clip712)" style="stroke:#000000; stroke-linecap:round; stroke-linejoin:round; stroke-width:4; stroke-opacity:1; fill:none" points="-388.911,277.087 -388.911,2762.98 -297.522,2762.98 -297.522,277.087 -388.911,277.087 "/>
<path clip-path="url(#clip712)" d="M-297.522 298.06 L-297.522 2762.98 L-206.133 2762.98 L-206.133 298.06 L-297.522 298.06 L-297.522 298.06  Z" fill="#009af9" fill-rule="evenodd" fill-opacity="1"/>
<polyline clip-path="url(#clip712)" style="stroke:#000000; stroke-linecap:round; stroke-linejoin:round; stroke-width:4; stroke-opacity:1; fill:none" points="-297.522,298.06 -297.522,2762.98 -206.133,2762.98 -206.133,298.06 -297.522,298.06 "/>
<path clip-path="url(#clip712)" d="M-206.133 320.803 L-206.133 2762.98 L-114.744 2762.98 L-114.744 320.803 L-206.133 320.803 L-206.133 320.803  Z" fill="#009af9" fill-rule="evenodd" fill-opacity="1"/>
<polyline clip-path="url(#clip712)" style="stroke:#000000; stroke-linecap:round; stroke-linejoin:round; stroke-width:4; stroke-opacity:1; fill:none" points="-206.133,320.803 -206.133,2762.98 -114.744,2762.98 -114.744,320.803 -206.133,320.803 "/>
<path clip-path="url(#clip712)" d="M-114.744 340.126 L-114.744 2762.98 L-23.3555 2762.98 L-23.3555 340.126 L-114.744 340.126 L-114.744 340.126  Z" fill="#009af9" fill-rule="evenodd" fill-opacity="1"/>
<polyline clip-path="url(#clip712)" style="stroke:#000000; stroke-linecap:round; stroke-linejoin:round; stroke-width:4; stroke-opacity:1; fill:none" points="-114.744,340.126 -114.744,2762.98 -23.3555,2762.98 -23.3555,340.126 -114.744,340.126 "/>
<path clip-path="url(#clip712)" d="M-23.3555 359.919 L-23.3555 2762.98 L68.0334 2762.98 L68.0334 359.919 L-23.3555 359.919 L-23.3555 359.919  Z" fill="#009af9" fill-rule="evenodd" fill-opacity="1"/>
<polyline clip-path="url(#clip712)" style="stroke:#000000; stroke-linecap:round; stroke-linejoin:round; stroke-width:4; stroke-opacity:1; fill:none" points="-23.3555,359.919 -23.3555,2762.98 68.0334,2762.98 68.0334,359.919 -23.3555,359.919 "/>
<path clip-path="url(#clip712)" d="M68.0334 397.809 L68.0334 2762.98 L159.422 2762.98 L159.422 397.809 L68.0334 397.809 L68.0334 397.809  Z" fill="#009af9" fill-rule="evenodd" fill-opacity="1"/>
<polyline clip-path="url(#clip712)" style="stroke:#000000; stroke-linecap:round; stroke-linejoin:round; stroke-width:4; stroke-opacity:1; fill:none" points="68.0334,397.809 68.0334,2762.98 159.422,2762.98 159.422,397.809 68.0334,397.809 "/>
<path clip-path="url(#clip712)" d="M159.422 435.446 L159.422 2762.98 L250.811 2762.98 L250.811 435.446 L159.422 435.446 L159.422 435.446  Z" fill="#009af9" fill-rule="evenodd" fill-opacity="1"/>
<polyline clip-path="url(#clip712)" style="stroke:#000000; stroke-linecap:round; stroke-linejoin:round; stroke-width:4; stroke-opacity:1; fill:none" points="159.422,435.446 159.422,2762.98 250.811,2762.98 250.811,435.446 159.422,435.446 "/>
<path clip-path="url(#clip712)" d="M250.811 456.282 L250.811 2762.98 L342.2 2762.98 L342.2 456.282 L250.811 456.282 L250.811 456.282  Z" fill="#009af9" fill-rule="evenodd" fill-opacity="1"/>
<polyline clip-path="url(#clip712)" style="stroke:#000000; stroke-linecap:round; stroke-linejoin:round; stroke-width:4; stroke-opacity:1; fill:none" points="250.811,456.282 250.811,2762.98 342.2,2762.98 342.2,456.282 250.811,456.282 "/>
<path clip-path="url(#clip712)" d="M342.2 489.599 L342.2 2762.98 L433.589 2762.98 L433.589 489.599 L342.2 489.599 L342.2 489.599  Z" fill="#009af9" fill-rule="evenodd" fill-opacity="1"/>
<polyline clip-path="url(#clip712)" style="stroke:#000000; stroke-linecap:round; stroke-linejoin:round; stroke-width:4; stroke-opacity:1; fill:none" points="342.2,489.599 342.2,2762.98 433.589,2762.98 433.589,489.599 342.2,489.599 "/>
<path clip-path="url(#clip712)" d="M433.589 542.161 L433.589 2762.98 L524.978 2762.98 L524.978 542.161 L433.589 542.161 L433.589 542.161  Z" fill="#009af9" fill-rule="evenodd" fill-opacity="1"/>
<polyline clip-path="url(#clip712)" style="stroke:#000000; stroke-linecap:round; stroke-linejoin:round; stroke-width:4; stroke-opacity:1; fill:none" points="433.589,542.161 433.589,2762.98 524.978,2762.98 524.978,542.161 433.589,542.161 "/>
<path clip-path="url(#clip712)" d="M524.978 575.915 L524.978 2762.98 L616.367 2762.98 L616.367 575.915 L524.978 575.915 L524.978 575.915  Z" fill="#009af9" fill-rule="evenodd" fill-opacity="1"/>
<polyline clip-path="url(#clip712)" style="stroke:#000000; stroke-linecap:round; stroke-linejoin:round; stroke-width:4; stroke-opacity:1; fill:none" points="524.978,575.915 524.978,2762.98 616.367,2762.98 616.367,575.915 524.978,575.915 "/>
<path clip-path="url(#clip712)" d="M616.367 629.05 L616.367 2762.98 L707.756 2762.98 L707.756 629.05 L616.367 629.05 L616.367 629.05  Z" fill="#009af9" fill-rule="evenodd" fill-opacity="1"/>
<polyline clip-path="url(#clip712)" style="stroke:#000000; stroke-linecap:round; stroke-linejoin:round; stroke-width:4; stroke-opacity:1; fill:none" points="616.367,629.05 616.367,2762.98 707.756,2762.98 707.756,629.05 616.367,629.05 "/>
<path clip-path="url(#clip712)" d="M707.756 666.012 L707.756 2762.98 L799.145 2762.98 L799.145 666.012 L707.756 666.012 L707.756 666.012  Z" fill="#009af9" fill-rule="evenodd" fill-opacity="1"/>
<polyline clip-path="url(#clip712)" style="stroke:#000000; stroke-linecap:round; stroke-linejoin:round; stroke-width:4; stroke-opacity:1; fill:none" points="707.756,666.012 707.756,2762.98 799.145,2762.98 799.145,666.012 707.756,666.012 "/>
<path clip-path="url(#clip712)" d="M799.145 713.386 L799.145 2762.98 L890.533 2762.98 L890.533 713.386 L799.145 713.386 L799.145 713.386  Z" fill="#009af9" fill-rule="evenodd" fill-opacity="1"/>
<polyline clip-path="url(#clip712)" style="stroke:#000000; stroke-linecap:round; stroke-linejoin:round; stroke-width:4; stroke-opacity:1; fill:none" points="799.145,713.386 799.145,2762.98 890.533,2762.98 890.533,713.386 799.145,713.386 "/>
<path clip-path="url(#clip712)" d="M890.533 784.626 L890.533 2762.98 L981.922 2762.98 L981.922 784.626 L890.533 784.626 L890.533 784.626  Z" fill="#009af9" fill-rule="evenodd" fill-opacity="1"/>
<polyline clip-path="url(#clip712)" style="stroke:#000000; stroke-linecap:round; stroke-linejoin:round; stroke-width:4; stroke-opacity:1; fill:none" points="890.533,784.626 890.533,2762.98 981.922,2762.98 981.922,784.626 890.533,784.626 "/>
<path clip-path="url(#clip712)" d="M981.922 868.375 L981.922 2762.98 L1073.31 2762.98 L1073.31 868.375 L981.922 868.375 L981.922 868.375  Z" fill="#009af9" fill-rule="evenodd" fill-opacity="1"/>
<polyline clip-path="url(#clip712)" style="stroke:#000000; stroke-linecap:round; stroke-linejoin:round; stroke-width:4; stroke-opacity:1; fill:none" points="981.922,868.375 981.922,2762.98 1073.31,2762.98 1073.31,868.375 981.922,868.375 "/>
<path clip-path="url(#clip712)" d="M1073.31 918.107 L1073.31 2762.98 L1164.7 2762.98 L1164.7 918.107 L1073.31 918.107 L1073.31 918.107  Z" fill="#009af9" fill-rule="evenodd" fill-opacity="1"/>
<polyline clip-path="url(#clip712)" style="stroke:#000000; stroke-linecap:round; stroke-linejoin:round; stroke-width:4; stroke-opacity:1; fill:none" points="1073.31,918.107 1073.31,2762.98 1164.7,2762.98 1164.7,918.107 1073.31,918.107 "/>
<path clip-path="url(#clip712)" d="M1164.7 1043.32 L1164.7 2762.98 L1256.09 2762.98 L1256.09 1043.32 L1164.7 1043.32 L1164.7 1043.32  Z" fill="#009af9" fill-rule="evenodd" fill-opacity="1"/>
<polyline clip-path="url(#clip712)" style="stroke:#000000; stroke-linecap:round; stroke-linejoin:round; stroke-width:4; stroke-opacity:1; fill:none" points="1164.7,1043.32 1164.7,2762.98 1256.09,2762.98 1256.09,1043.32 1164.7,1043.32 "/>
<path clip-path="url(#clip712)" d="M1256.09 1072.57 L1256.09 2762.98 L1347.48 2762.98 L1347.48 1072.57 L1256.09 1072.57 L1256.09 1072.57  Z" fill="#009af9" fill-rule="evenodd" fill-opacity="1"/>
<polyline clip-path="url(#clip712)" style="stroke:#000000; stroke-linecap:round; stroke-linejoin:round; stroke-width:4; stroke-opacity:1; fill:none" points="1256.09,1072.57 1256.09,2762.98 1347.48,2762.98 1347.48,1072.57 1256.09,1072.57 "/>
<path clip-path="url(#clip712)" d="Mnan nan L1347.48 2762.98 L1438.87 2762.98 Lnan nan Lnan nan Lnan nan  Z" fill="#009af9" fill-rule="evenodd" fill-opacity="1"/>
<polyline clip-path="url(#clip712)" style="stroke:#000000; stroke-linecap:round; stroke-linejoin:round; stroke-width:4; stroke-opacity:1; fill:none" points="1347.48,2762.98 1438.87,2762.98 "/>
<path clip-path="url(#clip712)" d="Mnan nan L1438.87 2762.98 L1530.26 2762.98 Lnan nan Lnan nan Lnan nan  Z" fill="#009af9" fill-rule="evenodd" fill-opacity="1"/>
<polyline clip-path="url(#clip712)" style="stroke:#000000; stroke-linecap:round; stroke-linejoin:round; stroke-width:4; stroke-opacity:1; fill:none" points="1438.87,2762.98 1530.26,2762.98 "/>
<path clip-path="url(#clip712)" d="M1530.26 1254.24 L1530.26 2762.98 L1621.64 2762.98 L1621.64 1254.24 L1530.26 1254.24 L1530.26 1254.24  Z" fill="#009af9" fill-rule="evenodd" fill-opacity="1"/>
<polyline clip-path="url(#clip712)" style="stroke:#000000; stroke-linecap:round; stroke-linejoin:round; stroke-width:4; stroke-opacity:1; fill:none" points="1530.26,1254.24 1530.26,2762.98 1621.64,2762.98 1621.64,1254.24 1530.26,1254.24 "/>
<path clip-path="url(#clip712)" d="Mnan nan L1621.64 2762.98 L1713.03 2762.98 Lnan nan Lnan nan Lnan nan  Z" fill="#009af9" fill-rule="evenodd" fill-opacity="1"/>
<polyline clip-path="url(#clip712)" style="stroke:#000000; stroke-linecap:round; stroke-linejoin:round; stroke-width:4; stroke-opacity:1; fill:none" points="1621.64,2762.98 1713.03,2762.98 "/>
<path clip-path="url(#clip712)" d="Mnan nan L1713.03 2762.98 L1804.42 2762.98 Lnan nan Lnan nan Lnan nan  Z" fill="#009af9" fill-rule="evenodd" fill-opacity="1"/>
<polyline clip-path="url(#clip712)" style="stroke:#000000; stroke-linecap:round; stroke-linejoin:round; stroke-width:4; stroke-opacity:1; fill:none" points="1713.03,2762.98 1804.42,2762.98 "/>
<path clip-path="url(#clip712)" d="Mnan nan L1804.42 2762.98 L1895.81 2762.98 Lnan nan Lnan nan Lnan nan  Z" fill="#009af9" fill-rule="evenodd" fill-opacity="1"/>
<polyline clip-path="url(#clip712)" style="stroke:#000000; stroke-linecap:round; stroke-linejoin:round; stroke-width:4; stroke-opacity:1; fill:none" points="1804.42,2762.98 1895.81,2762.98 "/>
<path clip-path="url(#clip712)" d="Mnan nan L1895.81 2762.98 L1987.2 2762.98 Lnan nan Lnan nan Lnan nan  Z" fill="#009af9" fill-rule="evenodd" fill-opacity="1"/>
<polyline clip-path="url(#clip712)" style="stroke:#000000; stroke-linecap:round; stroke-linejoin:round; stroke-width:4; stroke-opacity:1; fill:none" points="1895.81,2762.98 1987.2,2762.98 "/>
<path clip-path="url(#clip712)" d="Mnan nan L1987.2 2762.98 L2078.59 2762.98 Lnan nan Lnan nan Lnan nan  Z" fill="#009af9" fill-rule="evenodd" fill-opacity="1"/>
<polyline clip-path="url(#clip712)" style="stroke:#000000; stroke-linecap:round; stroke-linejoin:round; stroke-width:4; stroke-opacity:1; fill:none" points="1987.2,2762.98 2078.59,2762.98 "/>
<path clip-path="url(#clip712)" d="Mnan nan L2078.59 2762.98 L2169.98 2762.98 Lnan nan Lnan nan Lnan nan  Z" fill="#009af9" fill-rule="evenodd" fill-opacity="1"/>
<polyline clip-path="url(#clip712)" style="stroke:#000000; stroke-linecap:round; stroke-linejoin:round; stroke-width:4; stroke-opacity:1; fill:none" points="2078.59,2762.98 2169.98,2762.98 "/>
<path clip-path="url(#clip712)" d="Mnan nan L2169.98 2762.98 L2261.37 2762.98 Lnan nan Lnan nan Lnan nan  Z" fill="#009af9" fill-rule="evenodd" fill-opacity="1"/>
<polyline clip-path="url(#clip712)" style="stroke:#000000; stroke-linecap:round; stroke-linejoin:round; stroke-width:4; stroke-opacity:1; fill:none" points="2169.98,2762.98 2261.37,2762.98 "/>
<path clip-path="url(#clip712)" d="Mnan nan L2261.37 2762.98 L2352.76 2762.98 Lnan nan Lnan nan Lnan nan  Z" fill="#009af9" fill-rule="evenodd" fill-opacity="1"/>
<polyline clip-path="url(#clip712)" style="stroke:#000000; stroke-linecap:round; stroke-linejoin:round; stroke-width:4; stroke-opacity:1; fill:none" points="2261.37,2762.98 2352.76,2762.98 "/>
<path clip-path="url(#clip712)" d="Mnan nan L2352.76 2762.98 L2444.14 2762.98 Lnan nan Lnan nan Lnan nan  Z" fill="#009af9" fill-rule="evenodd" fill-opacity="1"/>
<polyline clip-path="url(#clip712)" style="stroke:#000000; stroke-linecap:round; stroke-linejoin:round; stroke-width:4; stroke-opacity:1; fill:none" points="2352.76,2762.98 2444.14,2762.98 "/>
<path clip-path="url(#clip712)" d="Mnan nan L2444.14 2762.98 L2535.53 2762.98 Lnan nan Lnan nan Lnan nan  Z" fill="#009af9" fill-rule="evenodd" fill-opacity="1"/>
<polyline clip-path="url(#clip712)" style="stroke:#000000; stroke-linecap:round; stroke-linejoin:round; stroke-width:4; stroke-opacity:1; fill:none" points="2444.14,2762.98 2535.53,2762.98 "/>
<path clip-path="url(#clip712)" d="Mnan nan L2535.53 2762.98 L2626.92 2762.98 Lnan nan Lnan nan Lnan nan  Z" fill="#009af9" fill-rule="evenodd" fill-opacity="1"/>
<polyline clip-path="url(#clip712)" style="stroke:#000000; stroke-linecap:round; stroke-linejoin:round; stroke-width:4; stroke-opacity:1; fill:none" points="2535.53,2762.98 2626.92,2762.98 "/>
<path clip-path="url(#clip712)" d="Mnan nan L2626.92 2762.98 L2718.31 2762.98 Lnan nan Lnan nan Lnan nan  Z" fill="#009af9" fill-rule="evenodd" fill-opacity="1"/>
<polyline clip-path="url(#clip712)" style="stroke:#000000; stroke-linecap:round; stroke-linejoin:round; stroke-width:4; stroke-opacity:1; fill:none" points="2626.92,2762.98 2718.31,2762.98 "/>
<circle clip-path="url(#clip712)" style="fill:#009af9; stroke:none; fill-opacity:0" cx="205.117" cy="435.446" r="2"/>
<circle clip-path="url(#clip712)" style="fill:#009af9; stroke:none; fill-opacity:0" cx="296.506" cy="456.282" r="2"/>
<circle clip-path="url(#clip712)" style="fill:#009af9; stroke:none; fill-opacity:0" cx="387.895" cy="489.599" r="2"/>
<circle clip-path="url(#clip712)" style="fill:#009af9; stroke:none; fill-opacity:0" cx="479.283" cy="542.161" r="2"/>
<circle clip-path="url(#clip712)" style="fill:#009af9; stroke:none; fill-opacity:0" cx="570.672" cy="575.915" r="2"/>
<circle clip-path="url(#clip712)" style="fill:#009af9; stroke:none; fill-opacity:0" cx="662.061" cy="629.05" r="2"/>
<circle clip-path="url(#clip712)" style="fill:#009af9; stroke:none; fill-opacity:0" cx="753.45" cy="666.012" r="2"/>
<circle clip-path="url(#clip712)" style="fill:#009af9; stroke:none; fill-opacity:0" cx="844.839" cy="713.386" r="2"/>
<circle clip-path="url(#clip712)" style="fill:#009af9; stroke:none; fill-opacity:0" cx="936.228" cy="784.626" r="2"/>
<circle clip-path="url(#clip712)" style="fill:#009af9; stroke:none; fill-opacity:0" cx="1027.62" cy="868.375" r="2"/>
<circle clip-path="url(#clip712)" style="fill:#009af9; stroke:none; fill-opacity:0" cx="1119.01" cy="918.107" r="2"/>
<circle clip-path="url(#clip712)" style="fill:#009af9; stroke:none; fill-opacity:0" cx="1210.39" cy="1043.32" r="2"/>
<circle clip-path="url(#clip712)" style="fill:#009af9; stroke:none; fill-opacity:0" cx="1301.78" cy="1072.57" r="2"/>
<circle clip-path="url(#clip712)" style="fill:#009af9; stroke:none; fill-opacity:0" cx="1575.95" cy="1254.24" r="2"/>
<polyline clip-path="url(#clip712)" style="stroke:#e26f46; stroke-linecap:round; stroke-linejoin:round; stroke-width:16; stroke-opacity:1; fill:none" points="-3221.97,1382.77 -3130.58,778.881 -3039.19,465.985 -2947.8,366.981 -2856.41,318.359 -2765.02,284.028 -2673.63,251.382 -2582.24,227.72 -2490.86,208.66 -2399.47,193.23 -2308.08,178.629 -2216.69,167.257 -2125.3,160.372 -2033.91,154.852 -1942.52,152.368 -1851.13,150.727 -1759.74,150.391 -1668.36,150.506 -1576.97,151.809 -1485.58,152.923 -1394.19,156.198 -1302.8,159.81 -1211.41,164.989 -1120.02,171.293 -1028.63,180.755 -937.245,189.073 -845.856,200.295 -754.467,213.423 -663.078,226.767 -571.689,242.781 -480.3,259.744 -388.911,278.583 -297.522,297.82 -206.133,320.021 -114.744,344.712 -23.3555,369.529 68.0334,397.378 159.422,426.826 250.811,459.057 342.2,493.381 433.589,531.942 524.978,571.583 616.367,618.143 707.756,666.959 799.145,721.364 890.533,783.563 981.922,847.302 1073.31,923.026 1164.7,987.19 1256.09,1084.65 1347.48,1156.98 1438.87,1209.87 1530.26,1238.48 1621.64,1266.82 1713.03,1312.01 1804.42,1364.32 1895.81,1440.35 1987.2,1538.03 2078.59,1559.1 2169.98,1604.08 2261.37,1610.13 2352.76,1627.34 2444.14,1634.7 2535.53,1642.49 2626.92,1646.1 "/>
<polyline clip-path="url(#clip712)" style="stroke:#3da44d; stroke-linecap:round; stroke-linejoin:round; stroke-width:16; stroke-opacity:1; fill:none" points="-3130.58,2800.53 -3039.19,2514.02 -2947.8,2420.87 -2856.41,2389.5 -2765.02,2342.23 -2673.63,2314.19 -2582.24,2279.82 -2490.86,2248.52 -2399.47,2224.57 -2308.08,2201.39 -2216.69,2179.36 -2125.3,2156.48 -2033.91,2135.17 -1942.52,2114.51 -1851.13,2097.81 -1759.74,2079.22 -1668.36,2062.78 -1576.97,2044.66 -1485.58,2030.73 -1394.19,2016.4 -1302.8,1999.59 -1211.41,1985.11 -1120.02,1973.54 -1028.63,1957.05 -937.245,1944.12 -845.856,1933.74 -754.467,1920.6 -663.078,1907.76 -571.689,1895.34 -480.3,1883.69 -388.911,1869.59 -297.522,1857.42 -206.133,1843.8 -114.744,1829.44 -23.3555,1814.46 68.0334,1797.73 159.422,1778.81 250.811,1758.89 342.2,1736.7 433.589,1712.83 524.978,1686.49 616.367,1657.49 707.756,1627.7 799.145,1596.27 890.533,1563.9 981.922,1530.28 1073.31,1495.03 1164.7,1459.08 1256.09,1422.34 1347.48,1386.26 1438.87,1353.51 1530.26,1331.02 1621.64,1328.13 1713.03,1354.94 1804.42,1420.66 1895.81,1532.56 1987.2,1695 2078.59,1915.91 2169.98,2194.19 2261.37,2528.83 2352.76,2941.35 "/>
<path clip-path="url(#clip710)" d="M1927.09 302.578 L2279.64 302.578 L2279.64 95.2176 L1927.09 95.2176  Z" fill="#ffffff" fill-rule="evenodd" fill-opacity="1"/>
<polyline clip-path="url(#clip710)" style="stroke:#000000; stroke-linecap:round; stroke-linejoin:round; stroke-width:4; stroke-opacity:1; fill:none" points="1927.09,302.578 2279.64,302.578 2279.64,95.2176 1927.09,95.2176 1927.09,302.578 "/>
<path clip-path="url(#clip710)" d="M1951.46 167.794 L2097.69 167.794 L2097.69 126.322 L1951.46 126.322 L1951.46 167.794  Z" fill="#009af9" fill-rule="evenodd" fill-opacity="1"/>
<polyline clip-path="url(#clip710)" style="stroke:#000000; stroke-linecap:round; stroke-linejoin:round; stroke-width:4; stroke-opacity:1; fill:none" points="1951.46,167.794 2097.69,167.794 2097.69,126.322 1951.46,126.322 1951.46,167.794 "/>
<path clip-path="url(#clip710)" d="M2140.97 142.347 L2140.97 128.319 L2145.23 128.319 L2145.23 164.338 L2140.97 164.338 L2140.97 160.449 Q2139.63 162.763 2137.57 163.898 Q2135.53 165.009 2132.66 165.009 Q2127.96 165.009 2125 161.259 Q2122.06 157.509 2122.06 151.398 Q2122.06 145.287 2125 141.537 Q2127.96 137.787 2132.66 137.787 Q2135.53 137.787 2137.57 138.921 Q2139.63 140.032 2140.97 142.347 M2126.46 151.398 Q2126.46 156.097 2128.38 158.782 Q2130.32 161.444 2133.7 161.444 Q2137.08 161.444 2139.03 158.782 Q2140.97 156.097 2140.97 151.398 Q2140.97 146.699 2139.03 144.037 Q2137.08 141.352 2133.7 141.352 Q2130.32 141.352 2128.38 144.037 Q2126.46 146.699 2126.46 151.398 Z" fill="#000000" fill-rule="nonzero" fill-opacity="1" /><path clip-path="url(#clip710)" d="M2165.78 151.305 Q2160.62 151.305 2158.63 152.486 Q2156.64 153.666 2156.64 156.514 Q2156.64 158.782 2158.12 160.125 Q2159.63 161.444 2162.2 161.444 Q2165.74 161.444 2167.87 158.944 Q2170.02 156.421 2170.02 152.254 L2170.02 151.305 L2165.78 151.305 M2174.28 149.546 L2174.28 164.338 L2170.02 164.338 L2170.02 160.402 Q2168.56 162.763 2166.39 163.898 Q2164.21 165.009 2161.06 165.009 Q2157.08 165.009 2154.72 162.787 Q2152.38 160.541 2152.38 156.791 Q2152.38 152.416 2155.3 150.194 Q2158.24 147.972 2164.05 147.972 L2170.02 147.972 L2170.02 147.555 Q2170.02 144.615 2168.08 143.018 Q2166.15 141.398 2162.66 141.398 Q2160.44 141.398 2158.33 141.93 Q2156.22 142.463 2154.28 143.527 L2154.28 139.592 Q2156.62 138.69 2158.82 138.25 Q2161.02 137.787 2163.1 137.787 Q2168.72 137.787 2171.5 140.703 Q2174.28 143.62 2174.28 149.546 Z" fill="#000000" fill-rule="nonzero" fill-opacity="1" /><path clip-path="url(#clip710)" d="M2187.27 131.051 L2187.27 138.412 L2196.04 138.412 L2196.04 141.722 L2187.27 141.722 L2187.27 155.796 Q2187.27 158.967 2188.12 159.87 Q2189 160.773 2191.66 160.773 L2196.04 160.773 L2196.04 164.338 L2191.66 164.338 Q2186.73 164.338 2184.86 162.509 Q2182.98 160.657 2182.98 155.796 L2182.98 141.722 L2179.86 141.722 L2179.86 138.412 L2182.98 138.412 L2182.98 131.051 L2187.27 131.051 Z" fill="#000000" fill-rule="nonzero" fill-opacity="1" /><path clip-path="url(#clip710)" d="M2213.42 151.305 Q2208.26 151.305 2206.27 152.486 Q2204.28 153.666 2204.28 156.514 Q2204.28 158.782 2205.76 160.125 Q2207.27 161.444 2209.83 161.444 Q2213.38 161.444 2215.51 158.944 Q2217.66 156.421 2217.66 152.254 L2217.66 151.305 L2213.42 151.305 M2221.92 149.546 L2221.92 164.338 L2217.66 164.338 L2217.66 160.402 Q2216.2 162.763 2214.02 163.898 Q2211.85 165.009 2208.7 165.009 Q2204.72 165.009 2202.36 162.787 Q2200.02 160.541 2200.02 156.791 Q2200.02 152.416 2202.94 150.194 Q2205.88 147.972 2211.69 147.972 L2217.66 147.972 L2217.66 147.555 Q2217.66 144.615 2215.71 143.018 Q2213.79 141.398 2210.3 141.398 Q2208.08 141.398 2205.97 141.93 Q2203.86 142.463 2201.92 143.527 L2201.92 139.592 Q2204.26 138.69 2206.46 138.25 Q2208.65 137.787 2210.74 137.787 Q2216.36 137.787 2219.14 140.703 Q2221.92 143.62 2221.92 149.546 Z" fill="#000000" fill-rule="nonzero" fill-opacity="1" /><polyline clip-path="url(#clip710)" style="stroke:#e26f46; stroke-linecap:round; stroke-linejoin:round; stroke-width:16; stroke-opacity:1; fill:none" points="1951.46,198.898 2097.69,198.898 "/>
<path clip-path="url(#clip710)" d="M2138.56 180.159 L2138.56 183.701 L2134.49 183.701 Q2132.2 183.701 2131.29 184.627 Q2130.41 185.553 2130.41 187.96 L2130.41 190.252 L2137.43 190.252 L2137.43 193.562 L2130.41 193.562 L2130.41 216.178 L2126.13 216.178 L2126.13 193.562 L2122.06 193.562 L2122.06 190.252 L2126.13 190.252 L2126.13 188.446 Q2126.13 184.118 2128.15 182.15 Q2130.16 180.159 2134.53 180.159 L2138.56 180.159 Z" fill="#000000" fill-rule="nonzero" fill-opacity="1" /><path clip-path="url(#clip710)" d="M2142.13 190.252 L2146.39 190.252 L2146.39 216.178 L2142.13 216.178 L2142.13 190.252 M2142.13 180.159 L2146.39 180.159 L2146.39 185.553 L2142.13 185.553 L2142.13 180.159 Z" fill="#000000" fill-rule="nonzero" fill-opacity="1" /><path clip-path="url(#clip710)" d="M2159.51 182.891 L2159.51 190.252 L2168.28 190.252 L2168.28 193.562 L2159.51 193.562 L2159.51 207.636 Q2159.51 210.807 2160.37 211.71 Q2161.25 212.613 2163.91 212.613 L2168.28 212.613 L2168.28 216.178 L2163.91 216.178 Q2158.98 216.178 2157.1 214.349 Q2155.23 212.497 2155.23 207.636 L2155.23 193.562 L2152.1 193.562 L2152.1 190.252 L2155.23 190.252 L2155.23 182.891 L2159.51 182.891 Z" fill="#000000" fill-rule="nonzero" fill-opacity="1" /><polyline clip-path="url(#clip710)" style="stroke:#3da44d; stroke-linecap:round; stroke-linejoin:round; stroke-width:16; stroke-opacity:1; fill:none" points="1951.46,250.738 2097.69,250.738 "/>
<path clip-path="url(#clip710)" d="M2140.48 242.856 L2140.48 246.883 Q2138.68 245.957 2136.73 245.495 Q2134.79 245.032 2132.71 245.032 Q2129.53 245.032 2127.94 246.004 Q2126.36 246.976 2126.36 248.92 Q2126.36 250.402 2127.5 251.258 Q2128.63 252.092 2132.06 252.856 L2133.52 253.18 Q2138.05 254.152 2139.95 255.934 Q2141.87 257.694 2141.87 260.865 Q2141.87 264.476 2139 266.582 Q2136.15 268.689 2131.15 268.689 Q2129.07 268.689 2126.8 268.272 Q2124.56 267.879 2122.06 267.068 L2122.06 262.67 Q2124.42 263.897 2126.71 264.522 Q2129 265.124 2131.25 265.124 Q2134.26 265.124 2135.88 264.106 Q2137.5 263.064 2137.5 261.189 Q2137.5 259.453 2136.32 258.527 Q2135.16 257.601 2131.2 256.744 L2129.72 256.397 Q2125.76 255.564 2124 253.851 Q2122.24 252.115 2122.24 249.106 Q2122.24 245.448 2124.84 243.458 Q2127.43 241.467 2132.2 241.467 Q2134.56 241.467 2136.64 241.814 Q2138.72 242.161 2140.48 242.856 Z" fill="#000000" fill-rule="nonzero" fill-opacity="1" /><path clip-path="url(#clip710)" d="M2148.65 242.092 L2152.91 242.092 L2152.91 268.018 L2148.65 268.018 L2148.65 242.092 M2148.65 231.999 L2152.91 231.999 L2152.91 237.393 L2148.65 237.393 L2148.65 231.999 Z" fill="#000000" fill-rule="nonzero" fill-opacity="1" /><path clip-path="url(#clip710)" d="M2178.89 254.754 Q2178.89 250.124 2176.96 247.578 Q2175.07 245.032 2171.62 245.032 Q2168.19 245.032 2166.27 247.578 Q2164.37 250.124 2164.37 254.754 Q2164.37 259.36 2166.27 261.906 Q2168.19 264.453 2171.62 264.453 Q2175.07 264.453 2176.96 261.906 Q2178.89 259.36 2178.89 254.754 M2183.15 264.8 Q2183.15 271.42 2180.21 274.638 Q2177.27 277.879 2171.2 277.879 Q2168.96 277.879 2166.96 277.531 Q2164.97 277.207 2163.1 276.513 L2163.1 272.369 Q2164.97 273.388 2166.8 273.874 Q2168.63 274.36 2170.53 274.36 Q2174.72 274.36 2176.8 272.161 Q2178.89 269.985 2178.89 265.564 L2178.89 263.457 Q2177.57 265.749 2175.51 266.883 Q2173.45 268.018 2170.58 268.018 Q2165.81 268.018 2162.89 264.383 Q2159.97 260.749 2159.97 254.754 Q2159.97 248.735 2162.89 245.101 Q2165.81 241.467 2170.58 241.467 Q2173.45 241.467 2175.51 242.601 Q2177.57 243.735 2178.89 246.027 L2178.89 242.092 L2183.15 242.092 L2183.15 264.8 Z" fill="#000000" fill-rule="nonzero" fill-opacity="1" /><path clip-path="url(#clip710)" d="M2213.47 252.369 L2213.47 268.018 L2209.21 268.018 L2209.21 252.508 Q2209.21 248.828 2207.77 246.999 Q2206.34 245.17 2203.47 245.17 Q2200.02 245.17 2198.03 247.37 Q2196.04 249.569 2196.04 253.365 L2196.04 268.018 L2191.76 268.018 L2191.76 242.092 L2196.04 242.092 L2196.04 246.12 Q2197.57 243.782 2199.63 242.624 Q2201.71 241.467 2204.42 241.467 Q2208.89 241.467 2211.18 244.245 Q2213.47 246.999 2213.47 252.369 Z" fill="#000000" fill-rule="nonzero" fill-opacity="1" /><path clip-path="url(#clip710)" d="M2233.75 254.985 Q2228.58 254.985 2226.59 256.166 Q2224.6 257.346 2224.6 260.194 Q2224.6 262.462 2226.08 263.805 Q2227.59 265.124 2230.16 265.124 Q2233.7 265.124 2235.83 262.624 Q2237.98 260.101 2237.98 255.934 L2237.98 254.985 L2233.75 254.985 M2242.24 253.226 L2242.24 268.018 L2237.98 268.018 L2237.98 264.082 Q2236.52 266.443 2234.35 267.578 Q2232.17 268.689 2229.02 268.689 Q2225.04 268.689 2222.68 266.467 Q2220.34 264.221 2220.34 260.471 Q2220.34 256.096 2223.26 253.874 Q2226.2 251.652 2232.01 251.652 L2237.98 251.652 L2237.98 251.235 Q2237.98 248.295 2236.04 246.698 Q2234.12 245.078 2230.62 245.078 Q2228.4 245.078 2226.29 245.61 Q2224.19 246.143 2222.24 247.207 L2222.24 243.272 Q2224.58 242.37 2226.78 241.93 Q2228.98 241.467 2231.06 241.467 Q2236.69 241.467 2239.46 244.383 Q2242.24 247.3 2242.24 253.226 Z" fill="#000000" fill-rule="nonzero" fill-opacity="1" /><path clip-path="url(#clip710)" d="M2251.02 231.999 L2255.27 231.999 L2255.27 268.018 L2251.02 268.018 L2251.02 231.999 Z" fill="#000000" fill-rule="nonzero" fill-opacity="1" /></svg>
