<?xml version="1.0" encoding="utf-8"?>
<svg xmlns="http://www.w3.org/2000/svg" xmlns:xlink="http://www.w3.org/1999/xlink" width="600" height="400" viewBox="0 0 2400 1600">
<defs>
  <clipPath id="clip780">
    <rect x="0" y="0" width="2400" height="1600"/>
  </clipPath>
</defs>
<path clip-path="url(#clip780)" d="M0 1600 L2400 1600 L2400 0 L0 0  Z" fill="#ffffff" fill-rule="evenodd" fill-opacity="1"/>
<defs>
  <clipPath id="clip781">
    <rect x="480" y="0" width="1681" height="1600"/>
  </clipPath>
</defs>
<path clip-path="url(#clip780)" d="M189.496 1486.45 L2352.76 1486.45 L2352.76 47.2441 L189.496 47.2441  Z" fill="#ffffff" fill-rule="evenodd" fill-opacity="1"/>
<defs>
  <clipPath id="clip782">
    <rect x="189" y="47" width="2164" height="1440"/>
  </clipPath>
</defs>
<polyline clip-path="url(#clip782)" style="stroke:#000000; stroke-linecap:round; stroke-linejoin:round; stroke-width:2; stroke-opacity:0.1; fill:none" points="189.496,1486.45 189.496,47.2441 "/>
<polyline clip-path="url(#clip782)" style="stroke:#000000; stroke-linecap:round; stroke-linejoin:round; stroke-width:2; stroke-opacity:0.1; fill:none" points="550.039,1486.45 550.039,47.2441 "/>
<polyline clip-path="url(#clip782)" style="stroke:#000000; stroke-linecap:round; stroke-linejoin:round; stroke-width:2; stroke-opacity:0.1; fill:none" points="910.583,1486.45 910.583,47.2441 "/>
<polyline clip-path="url(#clip782)" style="stroke:#000000; stroke-linecap:round; stroke-linejoin:round; stroke-width:2; stroke-opacity:0.1; fill:none" points="1271.13,1486.45 1271.13,47.2441 "/>
<polyline clip-path="url(#clip782)" style="stroke:#000000; stroke-linecap:round; stroke-linejoin:round; stroke-width:2; stroke-opacity:0.1; fill:none" points="1631.67,1486.45 1631.67,47.2441 "/>
<polyline clip-path="url(#clip782)" style="stroke:#000000; stroke-linecap:round; stroke-linejoin:round; stroke-width:2; stroke-opacity:0.1; fill:none" points="1992.21,1486.45 1992.21,47.2441 "/>
<polyline clip-path="url(#clip782)" style="stroke:#000000; stroke-linecap:round; stroke-linejoin:round; stroke-width:2; stroke-opacity:0.1; fill:none" points="2352.76,1486.45 2352.76,47.2441 "/>
<polyline clip-path="url(#clip782)" style="stroke:#000000; stroke-linecap:round; stroke-linejoin:round; stroke-width:2; stroke-opacity:0.1; fill:none" points="189.496,1486.45 2352.76,1486.45 "/>
<polyline clip-path="url(#clip782)" style="stroke:#000000; stroke-linecap:round; stroke-linejoin:round; stroke-width:2; stroke-opacity:0.1; fill:none" points="189.496,1280.85 2352.76,1280.85 "/>
<polyline clip-path="url(#clip782)" style="stroke:#000000; stroke-linecap:round; stroke-linejoin:round; stroke-width:2; stroke-opacity:0.1; fill:none" points="189.496,1075.25 2352.76,1075.25 "/>
<polyline clip-path="url(#clip782)" style="stroke:#000000; stroke-linecap:round; stroke-linejoin:round; stroke-width:2; stroke-opacity:0.1; fill:none" points="189.496,869.646 2352.76,869.646 "/>
<polyline clip-path="url(#clip782)" style="stroke:#000000; stroke-linecap:round; stroke-linejoin:round; stroke-width:2; stroke-opacity:0.1; fill:none" points="189.496,664.046 2352.76,664.046 "/>
<polyline clip-path="url(#clip782)" style="stroke:#000000; stroke-linecap:round; stroke-linejoin:round; stroke-width:2; stroke-opacity:0.1; fill:none" points="189.496,458.445 2352.76,458.445 "/>
<polyline clip-path="url(#clip782)" style="stroke:#000000; stroke-linecap:round; stroke-linejoin:round; stroke-width:2; stroke-opacity:0.1; fill:none" points="189.496,252.845 2352.76,252.845 "/>
<polyline clip-path="url(#clip782)" style="stroke:#000000; stroke-linecap:round; stroke-linejoin:round; stroke-width:2; stroke-opacity:0.1; fill:none" points="189.496,47.2441 2352.76,47.2441 "/>
<polyline clip-path="url(#clip780)" style="stroke:#000000; stroke-linecap:round; stroke-linejoin:round; stroke-width:4; stroke-opacity:1; fill:none" points="189.496,1486.45 2352.76,1486.45 "/>
<polyline clip-path="url(#clip780)" style="stroke:#000000; stroke-linecap:round; stroke-linejoin:round; stroke-width:4; stroke-opacity:1; fill:none" points="189.496,1486.45 189.496,1467.55 "/>
<polyline clip-path="url(#clip780)" style="stroke:#000000; stroke-linecap:round; stroke-linejoin:round; stroke-width:4; stroke-opacity:1; fill:none" points="550.039,1486.45 550.039,1467.55 "/>
<polyline clip-path="url(#clip780)" style="stroke:#000000; stroke-linecap:round; stroke-linejoin:round; stroke-width:4; stroke-opacity:1; fill:none" points="910.583,1486.45 910.583,1467.55 "/>
<polyline clip-path="url(#clip780)" style="stroke:#000000; stroke-linecap:round; stroke-linejoin:round; stroke-width:4; stroke-opacity:1; fill:none" points="1271.13,1486.45 1271.13,1467.55 "/>
<polyline clip-path="url(#clip780)" style="stroke:#000000; stroke-linecap:round; stroke-linejoin:round; stroke-width:4; stroke-opacity:1; fill:none" points="1631.67,1486.45 1631.67,1467.55 "/>
<polyline clip-path="url(#clip780)" style="stroke:#000000; stroke-linecap:round; stroke-linejoin:round; stroke-width:4; stroke-opacity:1; fill:none" points="1992.21,1486.45 1992.21,1467.55 "/>
<polyline clip-path="url(#clip780)" style="stroke:#000000; stroke-linecap:round; stroke-linejoin:round; stroke-width:4; stroke-opacity:1; fill:none" points="2352.76,1486.45 2352.76,1467.55 "/>
<path clip-path="url(#clip780)" d="M138.107 1544.91 L154.427 1544.91 L154.427 1548.85 L132.482 1548.85 L132.482 1544.91 Q135.144 1542.16 139.728 1537.53 Q144.334 1532.88 145.515 1531.53 Q147.76 1529.01 148.64 1527.27 Q149.542 1525.51 149.542 1523.82 Q149.542 1521.07 147.598 1519.33 Q145.677 1517.6 142.575 1517.6 Q140.376 1517.6 137.922 1518.36 Q135.492 1519.13 132.714 1520.68 L132.714 1515.95 Q135.538 1514.82 137.992 1514.24 Q140.445 1513.66 142.482 1513.66 Q147.853 1513.66 151.047 1516.35 Q154.241 1519.03 154.241 1523.52 Q154.241 1525.65 153.431 1527.57 Q152.644 1529.47 150.538 1532.07 Q149.959 1532.74 146.857 1535.95 Q143.755 1539.15 138.107 1544.91 Z" fill="#000000" fill-rule="nonzero" fill-opacity="1" /><path clip-path="url(#clip780)" d="M174.241 1517.37 Q170.63 1517.37 168.802 1520.93 Q166.996 1524.47 166.996 1531.6 Q166.996 1538.71 168.802 1542.27 Q170.63 1545.82 174.241 1545.82 Q177.876 1545.82 179.681 1542.27 Q181.51 1538.71 181.51 1531.6 Q181.51 1524.47 179.681 1520.93 Q177.876 1517.37 174.241 1517.37 M174.241 1513.66 Q180.052 1513.66 183.107 1518.27 Q186.186 1522.85 186.186 1531.6 Q186.186 1540.33 183.107 1544.94 Q180.052 1549.52 174.241 1549.52 Q168.431 1549.52 165.353 1544.94 Q162.297 1540.33 162.297 1531.6 Q162.297 1522.85 165.353 1518.27 Q168.431 1513.66 174.241 1513.66 Z" fill="#000000" fill-rule="nonzero" fill-opacity="1" /><path clip-path="url(#clip780)" d="M204.403 1517.37 Q200.792 1517.37 198.963 1520.93 Q197.158 1524.47 197.158 1531.6 Q197.158 1538.71 198.963 1542.27 Q200.792 1545.82 204.403 1545.82 Q208.037 1545.82 209.843 1542.27 Q211.672 1538.71 211.672 1531.6 Q211.672 1524.47 209.843 1520.93 Q208.037 1517.37 204.403 1517.37 M204.403 1513.66 Q210.213 1513.66 213.269 1518.27 Q216.348 1522.85 216.348 1531.6 Q216.348 1540.33 213.269 1544.94 Q210.213 1549.52 204.403 1549.52 Q198.593 1549.52 195.514 1544.94 Q192.459 1540.33 192.459 1531.6 Q192.459 1522.85 195.514 1518.27 Q198.593 1513.66 204.403 1513.66 Z" fill="#000000" fill-rule="nonzero" fill-opacity="1" /><path clip-path="url(#clip780)" d="M234.565 1517.37 Q230.954 1517.37 229.125 1520.93 Q227.32 1524.47 227.32 1531.6 Q227.32 1538.71 229.125 1542.27 Q230.954 1545.82 234.565 1545.82 Q238.199 1545.82 240.005 1542.27 Q241.834 1538.71 241.834 1531.6 Q241.834 1524.47 240.005 1520.93 Q238.199 1517.37 234.565 1517.37 M234.565 1513.66 Q240.375 1513.66 243.431 1518.27 Q246.51 1522.85 246.51 1531.6 Q246.51 1540.33 243.431 1544.94 Q240.375 1549.52 234.565 1549.52 Q228.755 1549.52 225.676 1544.94 Q222.621 1540.33 222.621 1531.6 Q222.621 1522.85 225.676 1518.27 Q228.755 1513.66 234.565 1513.66 Z" fill="#000000" fill-rule="nonzero" fill-opacity="1" /><path clip-path="url(#clip780)" d="M498.651 1544.91 L514.97 1544.91 L514.97 1548.85 L493.026 1548.85 L493.026 1544.91 Q495.688 1542.16 500.271 1537.53 Q504.877 1532.88 506.058 1531.53 Q508.303 1529.01 509.183 1527.27 Q510.086 1525.51 510.086 1523.82 Q510.086 1521.07 508.141 1519.33 Q506.22 1517.6 503.118 1517.6 Q500.919 1517.6 498.465 1518.36 Q496.035 1519.13 493.257 1520.68 L493.257 1515.95 Q496.081 1514.82 498.535 1514.24 Q500.989 1513.66 503.026 1513.66 Q508.396 1513.66 511.59 1516.35 Q514.785 1519.03 514.785 1523.52 Q514.785 1525.65 513.975 1527.57 Q513.188 1529.47 511.081 1532.07 Q510.502 1532.74 507.401 1535.95 Q504.299 1539.15 498.651 1544.91 Z" fill="#000000" fill-rule="nonzero" fill-opacity="1" /><path clip-path="url(#clip780)" d="M528.813 1544.91 L545.132 1544.91 L545.132 1548.85 L523.188 1548.85 L523.188 1544.91 Q525.85 1542.16 530.433 1537.53 Q535.039 1532.88 536.22 1531.53 Q538.465 1529.01 539.345 1527.27 Q540.248 1525.51 540.248 1523.82 Q540.248 1521.07 538.303 1519.33 Q536.382 1517.6 533.28 1517.6 Q531.081 1517.6 528.627 1518.36 Q526.197 1519.13 523.419 1520.68 L523.419 1515.95 Q526.243 1514.82 528.697 1514.24 Q531.15 1513.66 533.187 1513.66 Q538.558 1513.66 541.752 1516.35 Q544.947 1519.03 544.947 1523.52 Q544.947 1525.65 544.137 1527.57 Q543.349 1529.47 541.243 1532.07 Q540.664 1532.74 537.562 1535.95 Q534.461 1539.15 528.813 1544.91 Z" fill="#000000" fill-rule="nonzero" fill-opacity="1" /><path clip-path="url(#clip780)" d="M564.947 1517.37 Q561.335 1517.37 559.507 1520.93 Q557.701 1524.47 557.701 1531.6 Q557.701 1538.71 559.507 1542.27 Q561.335 1545.82 564.947 1545.82 Q568.581 1545.82 570.386 1542.27 Q572.215 1538.71 572.215 1531.6 Q572.215 1524.47 570.386 1520.93 Q568.581 1517.37 564.947 1517.37 M564.947 1513.66 Q570.757 1513.66 573.812 1518.27 Q576.891 1522.85 576.891 1531.6 Q576.891 1540.33 573.812 1544.94 Q570.757 1549.52 564.947 1549.52 Q559.136 1549.52 556.058 1544.94 Q553.002 1540.33 553.002 1531.6 Q553.002 1522.85 556.058 1518.27 Q559.136 1513.66 564.947 1513.66 Z" fill="#000000" fill-rule="nonzero" fill-opacity="1" /><path clip-path="url(#clip780)" d="M595.108 1517.37 Q591.497 1517.37 589.669 1520.93 Q587.863 1524.47 587.863 1531.6 Q587.863 1538.71 589.669 1542.27 Q591.497 1545.82 595.108 1545.82 Q598.743 1545.82 600.548 1542.27 Q602.377 1538.71 602.377 1531.6 Q602.377 1524.47 600.548 1520.93 Q598.743 1517.37 595.108 1517.37 M595.108 1513.66 Q600.919 1513.66 603.974 1518.27 Q607.053 1522.85 607.053 1531.6 Q607.053 1540.33 603.974 1544.94 Q600.919 1549.52 595.108 1549.52 Q589.298 1549.52 586.22 1544.94 Q583.164 1540.33 583.164 1531.6 Q583.164 1522.85 586.22 1518.27 Q589.298 1513.66 595.108 1513.66 Z" fill="#000000" fill-rule="nonzero" fill-opacity="1" /><path clip-path="url(#clip780)" d="M859.194 1544.91 L875.513 1544.91 L875.513 1548.85 L853.569 1548.85 L853.569 1544.91 Q856.231 1542.16 860.814 1537.53 Q865.421 1532.88 866.601 1531.53 Q868.847 1529.01 869.726 1527.27 Q870.629 1525.51 870.629 1523.82 Q870.629 1521.07 868.685 1519.33 Q866.763 1517.6 863.662 1517.6 Q861.462 1517.6 859.009 1518.36 Q856.578 1519.13 853.8 1520.68 L853.8 1515.95 Q856.625 1514.82 859.078 1514.24 Q861.532 1513.66 863.569 1513.66 Q868.939 1513.66 872.134 1516.35 Q875.328 1519.03 875.328 1523.52 Q875.328 1525.65 874.518 1527.57 Q873.731 1529.47 871.624 1532.07 Q871.046 1532.74 867.944 1535.95 Q864.842 1539.15 859.194 1544.91 Z" fill="#000000" fill-rule="nonzero" fill-opacity="1" /><path clip-path="url(#clip780)" d="M898.175 1518.36 L886.37 1536.81 L898.175 1536.81 L898.175 1518.36 M896.948 1514.29 L902.828 1514.29 L902.828 1536.81 L907.759 1536.81 L907.759 1540.7 L902.828 1540.7 L902.828 1548.85 L898.175 1548.85 L898.175 1540.7 L882.573 1540.7 L882.573 1536.19 L896.948 1514.29 Z" fill="#000000" fill-rule="nonzero" fill-opacity="1" /><path clip-path="url(#clip780)" d="M925.49 1517.37 Q921.879 1517.37 920.05 1520.93 Q918.245 1524.47 918.245 1531.6 Q918.245 1538.71 920.05 1542.27 Q921.879 1545.82 925.49 1545.82 Q929.124 1545.82 930.93 1542.27 Q932.758 1538.71 932.758 1531.6 Q932.758 1524.47 930.93 1520.93 Q929.124 1517.37 925.49 1517.37 M925.49 1513.66 Q931.3 1513.66 934.356 1518.27 Q937.434 1522.85 937.434 1531.6 Q937.434 1540.33 934.356 1544.94 Q931.3 1549.52 925.49 1549.52 Q919.68 1549.52 916.601 1544.94 Q913.546 1540.33 913.546 1531.6 Q913.546 1522.85 916.601 1518.27 Q919.68 1513.66 925.49 1513.66 Z" fill="#000000" fill-rule="nonzero" fill-opacity="1" /><path clip-path="url(#clip780)" d="M955.652 1517.37 Q952.041 1517.37 950.212 1520.93 Q948.406 1524.47 948.406 1531.6 Q948.406 1538.71 950.212 1542.27 Q952.041 1545.82 955.652 1545.82 Q959.286 1545.82 961.092 1542.27 Q962.92 1538.71 962.92 1531.6 Q962.92 1524.47 961.092 1520.93 Q959.286 1517.37 955.652 1517.37 M955.652 1513.66 Q961.462 1513.66 964.517 1518.27 Q967.596 1522.85 967.596 1531.6 Q967.596 1540.33 964.517 1544.94 Q961.462 1549.52 955.652 1549.52 Q949.842 1549.52 946.763 1544.94 Q943.707 1540.33 943.707 1531.6 Q943.707 1522.85 946.763 1518.27 Q949.842 1513.66 955.652 1513.66 Z" fill="#000000" fill-rule="nonzero" fill-opacity="1" /><path clip-path="url(#clip780)" d="M1219.74 1544.91 L1236.06 1544.91 L1236.06 1548.85 L1214.11 1548.85 L1214.11 1544.91 Q1216.77 1542.16 1221.36 1537.53 Q1225.96 1532.88 1227.14 1531.53 Q1229.39 1529.01 1230.27 1527.27 Q1231.17 1525.51 1231.17 1523.82 Q1231.17 1521.07 1229.23 1519.33 Q1227.31 1517.6 1224.2 1517.6 Q1222.01 1517.6 1219.55 1518.36 Q1217.12 1519.13 1214.34 1520.68 L1214.34 1515.95 Q1217.17 1514.82 1219.62 1514.24 Q1222.08 1513.66 1224.11 1513.66 Q1229.48 1513.66 1232.68 1516.35 Q1235.87 1519.03 1235.87 1523.52 Q1235.87 1525.65 1235.06 1527.57 Q1234.27 1529.47 1232.17 1532.07 Q1231.59 1532.74 1228.49 1535.95 Q1225.39 1539.15 1219.74 1544.91 Z" fill="#000000" fill-rule="nonzero" fill-opacity="1" /><path clip-path="url(#clip780)" d="M1256.45 1529.7 Q1253.3 1529.7 1251.45 1531.86 Q1249.62 1534.01 1249.62 1537.76 Q1249.62 1541.49 1251.45 1543.66 Q1253.3 1545.82 1256.45 1545.82 Q1259.6 1545.82 1261.43 1543.66 Q1263.28 1541.49 1263.28 1537.76 Q1263.28 1534.01 1261.43 1531.86 Q1259.6 1529.7 1256.45 1529.7 M1265.73 1515.05 L1265.73 1519.31 Q1263.97 1518.48 1262.17 1518.04 Q1260.39 1517.6 1258.63 1517.6 Q1254 1517.6 1251.54 1520.72 Q1249.11 1523.85 1248.76 1530.17 Q1250.13 1528.15 1252.19 1527.09 Q1254.25 1526 1256.73 1526 Q1261.94 1526 1264.95 1529.17 Q1267.98 1532.32 1267.98 1537.76 Q1267.98 1543.08 1264.83 1546.3 Q1261.68 1549.52 1256.45 1549.52 Q1250.45 1549.52 1247.28 1544.94 Q1244.11 1540.33 1244.11 1531.6 Q1244.11 1523.41 1248 1518.55 Q1251.89 1513.66 1258.44 1513.66 Q1260.2 1513.66 1261.98 1514.01 Q1263.79 1514.36 1265.73 1515.05 Z" fill="#000000" fill-rule="nonzero" fill-opacity="1" /><path clip-path="url(#clip780)" d="M1286.03 1517.37 Q1282.42 1517.37 1280.59 1520.93 Q1278.79 1524.47 1278.79 1531.6 Q1278.79 1538.71 1280.59 1542.27 Q1282.42 1545.82 1286.03 1545.82 Q1289.67 1545.82 1291.47 1542.27 Q1293.3 1538.71 1293.3 1531.6 Q1293.3 1524.47 1291.47 1520.93 Q1289.67 1517.37 1286.03 1517.37 M1286.03 1513.66 Q1291.84 1513.66 1294.9 1518.27 Q1297.98 1522.85 1297.98 1531.6 Q1297.98 1540.33 1294.9 1544.94 Q1291.84 1549.52 1286.03 1549.52 Q1280.22 1549.52 1277.14 1544.94 Q1274.09 1540.33 1274.09 1531.6 Q1274.09 1522.85 1277.14 1518.27 Q1280.22 1513.66 1286.03 1513.66 Z" fill="#000000" fill-rule="nonzero" fill-opacity="1" /><path clip-path="url(#clip780)" d="M1316.2 1517.37 Q1312.58 1517.37 1310.76 1520.93 Q1308.95 1524.47 1308.95 1531.6 Q1308.95 1538.71 1310.76 1542.27 Q1312.58 1545.82 1316.2 1545.82 Q1319.83 1545.82 1321.63 1542.27 Q1323.46 1538.71 1323.46 1531.6 Q1323.46 1524.47 1321.63 1520.93 Q1319.83 1517.37 1316.2 1517.37 M1316.2 1513.66 Q1322.01 1513.66 1325.06 1518.27 Q1328.14 1522.85 1328.14 1531.6 Q1328.14 1540.33 1325.06 1544.94 Q1322.01 1549.52 1316.2 1549.52 Q1310.38 1549.52 1307.31 1544.94 Q1304.25 1540.33 1304.25 1531.6 Q1304.25 1522.85 1307.31 1518.27 Q1310.38 1513.66 1316.2 1513.66 Z" fill="#000000" fill-rule="nonzero" fill-opacity="1" /><path clip-path="url(#clip780)" d="M1580.28 1544.91 L1596.6 1544.91 L1596.6 1548.85 L1574.66 1548.85 L1574.66 1544.91 Q1577.32 1542.16 1581.9 1537.53 Q1586.51 1532.88 1587.69 1531.53 Q1589.93 1529.01 1590.81 1527.27 Q1591.72 1525.51 1591.72 1523.82 Q1591.72 1521.07 1589.77 1519.33 Q1587.85 1517.6 1584.75 1517.6 Q1582.55 1517.6 1580.1 1518.36 Q1577.66 1519.13 1574.89 1520.68 L1574.89 1515.95 Q1577.71 1514.82 1580.16 1514.24 Q1582.62 1513.66 1584.66 1513.66 Q1590.03 1513.66 1593.22 1516.35 Q1596.41 1519.03 1596.41 1523.52 Q1596.41 1525.65 1595.6 1527.57 Q1594.82 1529.47 1592.71 1532.07 Q1592.13 1532.74 1589.03 1535.95 Q1585.93 1539.15 1580.28 1544.91 Z" fill="#000000" fill-rule="nonzero" fill-opacity="1" /><path clip-path="url(#clip780)" d="M1616.41 1532.44 Q1613.08 1532.44 1611.16 1534.22 Q1609.26 1536 1609.26 1539.13 Q1609.26 1542.25 1611.16 1544.03 Q1613.08 1545.82 1616.41 1545.82 Q1619.75 1545.82 1621.67 1544.03 Q1623.59 1542.23 1623.59 1539.13 Q1623.59 1536 1621.67 1534.22 Q1619.77 1532.44 1616.41 1532.44 M1611.74 1530.45 Q1608.73 1529.7 1607.04 1527.64 Q1605.37 1525.58 1605.37 1522.62 Q1605.37 1518.48 1608.31 1516.07 Q1611.28 1513.66 1616.41 1513.66 Q1621.58 1513.66 1624.52 1516.07 Q1627.46 1518.48 1627.46 1522.62 Q1627.46 1525.58 1625.77 1527.64 Q1624.1 1529.7 1621.11 1530.45 Q1624.49 1531.23 1626.37 1533.52 Q1628.27 1535.82 1628.27 1539.13 Q1628.27 1544.15 1625.19 1546.83 Q1622.13 1549.52 1616.41 1549.52 Q1610.7 1549.52 1607.62 1546.83 Q1604.56 1544.15 1604.56 1539.13 Q1604.56 1535.82 1606.46 1533.52 Q1608.36 1531.23 1611.74 1530.45 M1610.03 1523.06 Q1610.03 1525.75 1611.69 1527.25 Q1613.38 1528.76 1616.41 1528.76 Q1619.42 1528.76 1621.11 1527.25 Q1622.83 1525.75 1622.83 1523.06 Q1622.83 1520.38 1621.11 1518.87 Q1619.42 1517.37 1616.41 1517.37 Q1613.38 1517.37 1611.69 1518.87 Q1610.03 1520.38 1610.03 1523.06 Z" fill="#000000" fill-rule="nonzero" fill-opacity="1" /><path clip-path="url(#clip780)" d="M1646.58 1517.37 Q1642.97 1517.37 1641.14 1520.93 Q1639.33 1524.47 1639.33 1531.6 Q1639.33 1538.71 1641.14 1542.27 Q1642.97 1545.82 1646.58 1545.82 Q1650.21 1545.82 1652.02 1542.27 Q1653.85 1538.71 1653.85 1531.6 Q1653.85 1524.47 1652.02 1520.93 Q1650.21 1517.37 1646.58 1517.37 M1646.58 1513.66 Q1652.39 1513.66 1655.44 1518.27 Q1658.52 1522.85 1658.52 1531.6 Q1658.52 1540.33 1655.44 1544.94 Q1652.39 1549.52 1646.58 1549.52 Q1640.77 1549.52 1637.69 1544.94 Q1634.63 1540.33 1634.63 1531.6 Q1634.63 1522.85 1637.69 1518.27 Q1640.77 1513.66 1646.58 1513.66 Z" fill="#000000" fill-rule="nonzero" fill-opacity="1" /><path clip-path="url(#clip780)" d="M1676.74 1517.37 Q1673.13 1517.37 1671.3 1520.93 Q1669.49 1524.47 1669.49 1531.6 Q1669.49 1538.71 1671.3 1542.27 Q1673.13 1545.82 1676.74 1545.82 Q1680.37 1545.82 1682.18 1542.27 Q1684.01 1538.71 1684.01 1531.6 Q1684.01 1524.47 1682.18 1520.93 Q1680.37 1517.37 1676.74 1517.37 M1676.74 1513.66 Q1682.55 1513.66 1685.6 1518.27 Q1688.68 1522.85 1688.68 1531.6 Q1688.68 1540.33 1685.6 1544.94 Q1682.55 1549.52 1676.74 1549.52 Q1670.93 1549.52 1667.85 1544.94 Q1664.79 1540.33 1664.79 1531.6 Q1664.79 1522.85 1667.85 1518.27 Q1670.93 1513.66 1676.74 1513.66 Z" fill="#000000" fill-rule="nonzero" fill-opacity="1" /><path clip-path="url(#clip780)" d="M1950.89 1530.21 Q1954.25 1530.93 1956.12 1533.2 Q1958.02 1535.47 1958.02 1538.8 Q1958.02 1543.92 1954.5 1546.72 Q1950.99 1549.52 1944.5 1549.52 Q1942.33 1549.52 1940.01 1549.08 Q1937.72 1548.66 1935.27 1547.81 L1935.27 1543.29 Q1937.21 1544.43 1939.53 1545.01 Q1941.84 1545.58 1944.37 1545.58 Q1948.76 1545.58 1951.06 1543.85 Q1953.37 1542.11 1953.37 1538.8 Q1953.37 1535.75 1951.22 1534.03 Q1949.09 1532.3 1945.27 1532.3 L1941.24 1532.3 L1941.24 1528.45 L1945.45 1528.45 Q1948.9 1528.45 1950.73 1527.09 Q1952.56 1525.7 1952.56 1523.11 Q1952.56 1520.45 1950.66 1519.03 Q1948.79 1517.6 1945.27 1517.6 Q1943.35 1517.6 1941.15 1518.01 Q1938.95 1518.43 1936.31 1519.31 L1936.31 1515.14 Q1938.97 1514.4 1941.29 1514.03 Q1943.62 1513.66 1945.69 1513.66 Q1951.01 1513.66 1954.11 1516.09 Q1957.21 1518.5 1957.21 1522.62 Q1957.21 1525.49 1955.57 1527.48 Q1953.93 1529.45 1950.89 1530.21 Z" fill="#000000" fill-rule="nonzero" fill-opacity="1" /><path clip-path="url(#clip780)" d="M1976.89 1517.37 Q1973.28 1517.37 1971.45 1520.93 Q1969.64 1524.47 1969.64 1531.6 Q1969.64 1538.71 1971.45 1542.27 Q1973.28 1545.82 1976.89 1545.82 Q1980.52 1545.82 1982.33 1542.27 Q1984.16 1538.71 1984.16 1531.6 Q1984.16 1524.47 1982.33 1520.93 Q1980.52 1517.37 1976.89 1517.37 M1976.89 1513.66 Q1982.7 1513.66 1985.75 1518.27 Q1988.83 1522.85 1988.83 1531.6 Q1988.83 1540.33 1985.75 1544.94 Q1982.7 1549.52 1976.89 1549.52 Q1971.08 1549.52 1968 1544.94 Q1964.94 1540.33 1964.94 1531.6 Q1964.94 1522.85 1968 1518.27 Q1971.08 1513.66 1976.89 1513.66 Z" fill="#000000" fill-rule="nonzero" fill-opacity="1" /><path clip-path="url(#clip780)" d="M2007.05 1517.37 Q2003.44 1517.37 2001.61 1520.93 Q1999.81 1524.47 1999.81 1531.6 Q1999.81 1538.71 2001.61 1542.27 Q2003.44 1545.82 2007.05 1545.82 Q2010.68 1545.82 2012.49 1542.27 Q2014.32 1538.71 2014.32 1531.6 Q2014.32 1524.47 2012.49 1520.93 Q2010.68 1517.37 2007.05 1517.37 M2007.05 1513.66 Q2012.86 1513.66 2015.92 1518.27 Q2018.99 1522.85 2018.99 1531.6 Q2018.99 1540.33 2015.92 1544.94 Q2012.86 1549.52 2007.05 1549.52 Q2001.24 1549.52 1998.16 1544.94 Q1995.11 1540.33 1995.11 1531.6 Q1995.11 1522.85 1998.16 1518.27 Q2001.24 1513.66 2007.05 1513.66 Z" fill="#000000" fill-rule="nonzero" fill-opacity="1" /><path clip-path="url(#clip780)" d="M2037.21 1517.37 Q2033.6 1517.37 2031.77 1520.93 Q2029.97 1524.47 2029.97 1531.6 Q2029.97 1538.71 2031.77 1542.27 Q2033.6 1545.82 2037.21 1545.82 Q2040.85 1545.82 2042.65 1542.27 Q2044.48 1538.71 2044.48 1531.6 Q2044.48 1524.47 2042.65 1520.93 Q2040.85 1517.37 2037.21 1517.37 M2037.21 1513.66 Q2043.02 1513.66 2046.08 1518.27 Q2049.16 1522.85 2049.16 1531.6 Q2049.16 1540.33 2046.08 1544.94 Q2043.02 1549.52 2037.21 1549.52 Q2031.4 1549.52 2028.32 1544.94 Q2025.27 1540.33 2025.27 1531.6 Q2025.27 1522.85 2028.32 1518.27 Q2031.4 1513.66 2037.21 1513.66 Z" fill="#000000" fill-rule="nonzero" fill-opacity="1" /><path clip-path="url(#clip780)" d="M2311.44 1530.21 Q2314.79 1530.93 2316.67 1533.2 Q2318.57 1535.47 2318.57 1538.8 Q2318.57 1543.92 2315.05 1546.72 Q2311.53 1549.52 2305.05 1549.52 Q2302.87 1549.52 2300.56 1549.08 Q2298.27 1548.66 2295.81 1547.81 L2295.81 1543.29 Q2297.76 1544.43 2300.07 1545.01 Q2302.39 1545.58 2304.91 1545.58 Q2309.31 1545.58 2311.6 1543.85 Q2313.91 1542.11 2313.91 1538.8 Q2313.91 1535.75 2311.76 1534.03 Q2309.63 1532.3 2305.81 1532.3 L2301.78 1532.3 L2301.78 1528.45 L2306 1528.45 Q2309.45 1528.45 2311.27 1527.09 Q2313.1 1525.7 2313.1 1523.11 Q2313.1 1520.45 2311.21 1519.03 Q2309.33 1517.6 2305.81 1517.6 Q2303.89 1517.6 2301.69 1518.01 Q2299.49 1518.43 2296.85 1519.31 L2296.85 1515.14 Q2299.52 1514.4 2301.83 1514.03 Q2304.17 1513.66 2306.23 1513.66 Q2311.55 1513.66 2314.65 1516.09 Q2317.76 1518.5 2317.76 1522.62 Q2317.76 1525.49 2316.11 1527.48 Q2314.47 1529.45 2311.44 1530.21 Z" fill="#000000" fill-rule="nonzero" fill-opacity="1" /><path clip-path="url(#clip780)" d="M2331.46 1544.91 L2347.78 1544.91 L2347.78 1548.85 L2325.83 1548.85 L2325.83 1544.91 Q2328.5 1542.16 2333.08 1537.53 Q2337.69 1532.88 2338.87 1531.53 Q2341.11 1529.01 2341.99 1527.27 Q2342.89 1525.51 2342.89 1523.82 Q2342.89 1521.07 2340.95 1519.33 Q2339.03 1517.6 2335.93 1517.6 Q2333.73 1517.6 2331.27 1518.36 Q2328.84 1519.13 2326.07 1520.68 L2326.07 1515.95 Q2328.89 1514.82 2331.34 1514.24 Q2333.8 1513.66 2335.83 1513.66 Q2341.21 1513.66 2344.4 1516.35 Q2347.59 1519.03 2347.59 1523.52 Q2347.59 1525.65 2346.78 1527.57 Q2346 1529.47 2343.89 1532.07 Q2343.31 1532.74 2340.21 1535.95 Q2337.11 1539.15 2331.46 1544.91 Z" fill="#000000" fill-rule="nonzero" fill-opacity="1" /><path clip-path="url(#clip780)" d="M2367.59 1517.37 Q2363.98 1517.37 2362.15 1520.93 Q2360.35 1524.47 2360.35 1531.6 Q2360.35 1538.71 2362.15 1542.27 Q2363.98 1545.82 2367.59 1545.82 Q2371.23 1545.82 2373.03 1542.27 Q2374.86 1538.71 2374.86 1531.6 Q2374.86 1524.47 2373.03 1520.93 Q2371.23 1517.37 2367.59 1517.37 M2367.59 1513.66 Q2373.4 1513.66 2376.46 1518.27 Q2379.54 1522.85 2379.54 1531.6 Q2379.54 1540.33 2376.46 1544.94 Q2373.4 1549.52 2367.59 1549.52 Q2361.78 1549.52 2358.7 1544.94 Q2355.65 1540.33 2355.65 1531.6 Q2355.65 1522.85 2358.7 1518.27 Q2361.78 1513.66 2367.59 1513.66 Z" fill="#000000" fill-rule="nonzero" fill-opacity="1" /><path clip-path="url(#clip780)" d="M2397.76 1517.37 Q2394.14 1517.37 2392.32 1520.93 Q2390.51 1524.47 2390.51 1531.6 Q2390.51 1538.71 2392.32 1542.27 Q2394.14 1545.82 2397.76 1545.82 Q2401.39 1545.82 2403.2 1542.27 Q2405.02 1538.71 2405.02 1531.6 Q2405.02 1524.47 2403.2 1520.93 Q2401.39 1517.37 2397.76 1517.37 M2397.76 1513.66 Q2403.57 1513.66 2406.62 1518.27 Q2409.7 1522.85 2409.7 1531.6 Q2409.7 1540.33 2406.62 1544.94 Q2403.57 1549.52 2397.76 1549.52 Q2391.95 1549.52 2388.87 1544.94 Q2385.81 1540.33 2385.81 1531.6 Q2385.81 1522.85 2388.87 1518.27 Q2391.95 1513.66 2397.76 1513.66 Z" fill="#000000" fill-rule="nonzero" fill-opacity="1" /><polyline clip-path="url(#clip780)" style="stroke:#000000; stroke-linecap:round; stroke-linejoin:round; stroke-width:4; stroke-opacity:1; fill:none" points="189.496,1486.45 189.496,47.2441 "/>
<polyline clip-path="url(#clip780)" style="stroke:#000000; stroke-linecap:round; stroke-linejoin:round; stroke-width:4; stroke-opacity:1; fill:none" points="189.496,1486.45 208.394,1486.45 "/>
<polyline clip-path="url(#clip780)" style="stroke:#000000; stroke-linecap:round; stroke-linejoin:round; stroke-width:4; stroke-opacity:1; fill:none" points="189.496,1280.85 208.394,1280.85 "/>
<polyline clip-path="url(#clip780)" style="stroke:#000000; stroke-linecap:round; stroke-linejoin:round; stroke-width:4; stroke-opacity:1; fill:none" points="189.496,1075.25 208.394,1075.25 "/>
<polyline clip-path="url(#clip780)" style="stroke:#000000; stroke-linecap:round; stroke-linejoin:round; stroke-width:4; stroke-opacity:1; fill:none" points="189.496,869.646 208.394,869.646 "/>
<polyline clip-path="url(#clip780)" style="stroke:#000000; stroke-linecap:round; stroke-linejoin:round; stroke-width:4; stroke-opacity:1; fill:none" points="189.496,664.046 208.394,664.046 "/>
<polyline clip-path="url(#clip780)" style="stroke:#000000; stroke-linecap:round; stroke-linejoin:round; stroke-width:4; stroke-opacity:1; fill:none" points="189.496,458.445 208.394,458.445 "/>
<polyline clip-path="url(#clip780)" style="stroke:#000000; stroke-linecap:round; stroke-linejoin:round; stroke-width:4; stroke-opacity:1; fill:none" points="189.496,252.845 208.394,252.845 "/>
<polyline clip-path="url(#clip780)" style="stroke:#000000; stroke-linecap:round; stroke-linejoin:round; stroke-width:4; stroke-opacity:1; fill:none" points="189.496,47.2441 208.394,47.2441 "/>
<path clip-path="url(#clip780)" d="M52.8671 1506.24 L60.506 1506.24 L60.506 1479.87 L52.1958 1481.54 L52.1958 1477.28 L60.4597 1475.62 L65.1356 1475.62 L65.1356 1506.24 L72.7744 1506.24 L72.7744 1510.18 L52.8671 1510.18 L52.8671 1506.24 Z" fill="#000000" fill-rule="nonzero" fill-opacity="1" /><path clip-path="url(#clip780)" d="M92.2188 1478.69 Q88.6077 1478.69 86.779 1482.26 Q84.9734 1485.8 84.9734 1492.93 Q84.9734 1500.04 86.779 1503.6 Q88.6077 1507.14 92.2188 1507.14 Q95.853 1507.14 97.6585 1503.6 Q99.4872 1500.04 99.4872 1492.93 Q99.4872 1485.8 97.6585 1482.26 Q95.853 1478.69 92.2188 1478.69 M92.2188 1474.99 Q98.0289 1474.99 101.084 1479.6 Q104.163 1484.18 104.163 1492.93 Q104.163 1501.66 101.084 1506.26 Q98.0289 1510.85 92.2188 1510.85 Q86.4086 1510.85 83.3299 1506.26 Q80.2744 1501.66 80.2744 1492.93 Q80.2744 1484.18 83.3299 1479.6 Q86.4086 1474.99 92.2188 1474.99 Z" fill="#000000" fill-rule="nonzero" fill-opacity="1" /><path clip-path="url(#clip780)" d="M104.163 1469.09 L128.275 1469.09 L128.275 1472.29 L104.163 1472.29 L104.163 1469.09 Z" fill="#000000" fill-rule="nonzero" fill-opacity="1" /><path clip-path="url(#clip780)" d="M136.513 1454.69 L151.427 1454.69 L151.427 1457.88 L139.992 1457.88 L139.992 1464.77 Q140.819 1464.48 141.647 1464.35 Q142.475 1464.2 143.302 1464.2 Q148.004 1464.2 150.75 1466.78 Q153.496 1469.36 153.496 1473.76 Q153.496 1478.29 150.675 1480.81 Q147.854 1483.31 142.719 1483.31 Q140.951 1483.31 139.108 1483.01 Q137.284 1482.71 135.328 1482.11 L135.328 1478.29 Q137.02 1479.21 138.826 1479.66 Q140.631 1480.11 142.644 1480.11 Q145.898 1480.11 147.797 1478.4 Q149.697 1476.69 149.697 1473.76 Q149.697 1470.82 147.797 1469.11 Q145.898 1467.4 142.644 1467.4 Q141.12 1467.4 139.597 1467.74 Q138.092 1468.08 136.513 1468.79 L136.513 1454.69 Z" fill="#000000" fill-rule="nonzero" fill-opacity="1" /><path clip-path="url(#clip780)" d="M51.6634 1300.64 L59.3023 1300.64 L59.3023 1274.27 L50.9921 1275.94 L50.9921 1271.68 L59.256 1270.01 L63.9319 1270.01 L63.9319 1300.64 L71.5707 1300.64 L71.5707 1304.57 L51.6634 1304.57 L51.6634 1300.64 Z" fill="#000000" fill-rule="nonzero" fill-opacity="1" /><path clip-path="url(#clip780)" d="M91.0151 1273.09 Q87.404 1273.09 85.5753 1276.66 Q83.7697 1280.2 83.7697 1287.33 Q83.7697 1294.44 85.5753 1298 Q87.404 1301.54 91.0151 1301.54 Q94.6493 1301.54 96.4548 1298 Q98.2835 1294.44 98.2835 1287.33 Q98.2835 1280.2 96.4548 1276.66 Q94.6493 1273.09 91.0151 1273.09 M91.0151 1269.39 Q96.8252 1269.39 99.8808 1274 Q102.959 1278.58 102.959 1287.33 Q102.959 1296.06 99.8808 1300.66 Q96.8252 1305.25 91.0151 1305.25 Q85.2049 1305.25 82.1262 1300.66 Q79.0707 1296.06 79.0707 1287.33 Q79.0707 1278.58 82.1262 1274 Q85.2049 1269.39 91.0151 1269.39 Z" fill="#000000" fill-rule="nonzero" fill-opacity="1" /><path clip-path="url(#clip780)" d="M102.959 1263.49 L127.071 1263.49 L127.071 1266.69 L102.959 1266.69 L102.959 1263.49 Z" fill="#000000" fill-rule="nonzero" fill-opacity="1" /><path clip-path="url(#clip780)" d="M145.71 1252.39 L136.118 1267.38 L145.71 1267.38 L145.71 1252.39 M144.713 1249.08 L149.49 1249.08 L149.49 1267.38 L153.496 1267.38 L153.496 1270.54 L149.49 1270.54 L149.49 1277.16 L145.71 1277.16 L145.71 1270.54 L133.033 1270.54 L133.033 1266.88 L144.713 1249.08 Z" fill="#000000" fill-rule="nonzero" fill-opacity="1" /><path clip-path="url(#clip780)" d="M52.585 1095.04 L60.2238 1095.04 L60.2238 1068.67 L51.9137 1070.34 L51.9137 1066.08 L60.1776 1064.41 L64.8535 1064.41 L64.8535 1095.04 L72.4923 1095.04 L72.4923 1098.97 L52.585 1098.97 L52.585 1095.04 Z" fill="#000000" fill-rule="nonzero" fill-opacity="1" /><path clip-path="url(#clip780)" d="M91.9366 1067.49 Q88.3255 1067.49 86.4969 1071.06 Q84.6913 1074.6 84.6913 1081.73 Q84.6913 1088.84 86.4969 1092.4 Q88.3255 1095.94 91.9366 1095.94 Q95.5709 1095.94 97.3764 1092.4 Q99.2051 1088.84 99.2051 1081.73 Q99.2051 1074.6 97.3764 1071.06 Q95.5709 1067.49 91.9366 1067.49 M91.9366 1063.79 Q97.7468 1063.79 100.802 1068.4 Q103.881 1072.98 103.881 1081.73 Q103.881 1090.46 100.802 1095.06 Q97.7468 1099.65 91.9366 1099.65 Q86.1265 1099.65 83.0478 1095.06 Q79.9923 1090.46 79.9923 1081.73 Q79.9923 1072.98 83.0478 1068.4 Q86.1265 1063.79 91.9366 1063.79 Z" fill="#000000" fill-rule="nonzero" fill-opacity="1" /><path clip-path="url(#clip780)" d="M103.881 1057.89 L127.993 1057.89 L127.993 1061.09 L103.881 1061.09 L103.881 1057.89 Z" fill="#000000" fill-rule="nonzero" fill-opacity="1" /><path clip-path="url(#clip780)" d="M147.703 1056.42 Q150.43 1057.01 151.954 1058.85 Q153.496 1060.69 153.496 1063.4 Q153.496 1067.56 150.637 1069.83 Q147.778 1072.11 142.512 1072.11 Q140.744 1072.11 138.863 1071.75 Q137.002 1071.41 135.008 1070.72 L135.008 1067.05 Q136.588 1067.97 138.469 1068.44 Q140.349 1068.91 142.399 1068.91 Q145.973 1068.91 147.835 1067.5 Q149.716 1066.09 149.716 1063.4 Q149.716 1060.92 147.966 1059.53 Q146.236 1058.12 143.133 1058.12 L139.86 1058.12 L139.86 1054.99 L143.283 1054.99 Q146.086 1054.99 147.571 1053.88 Q149.057 1052.76 149.057 1050.65 Q149.057 1048.49 147.515 1047.34 Q145.992 1046.17 143.133 1046.17 Q141.572 1046.17 139.785 1046.51 Q137.998 1046.85 135.854 1047.57 L135.854 1044.18 Q138.017 1043.58 139.898 1043.28 Q141.797 1042.98 143.471 1042.98 Q147.797 1042.98 150.317 1044.95 Q152.838 1046.91 152.838 1050.25 Q152.838 1052.59 151.502 1054.2 Q150.167 1055.8 147.703 1056.42 Z" fill="#000000" fill-rule="nonzero" fill-opacity="1" /><path clip-path="url(#clip780)" d="M53.3561 889.439 L60.995 889.439 L60.995 863.073 L52.6848 864.74 L52.6848 860.481 L60.9487 858.814 L65.6246 858.814 L65.6246 889.439 L73.2634 889.439 L73.2634 893.374 L53.3561 893.374 L53.3561 889.439 Z" fill="#000000" fill-rule="nonzero" fill-opacity="1" /><path clip-path="url(#clip780)" d="M92.7078 861.893 Q89.0967 861.893 87.268 865.457 Q85.4624 868.999 85.4624 876.129 Q85.4624 883.235 87.268 886.8 Q89.0967 890.341 92.7078 890.341 Q96.342 890.341 98.1475 886.8 Q99.9762 883.235 99.9762 876.129 Q99.9762 868.999 98.1475 865.457 Q96.342 861.893 92.7078 861.893 M92.7078 858.189 Q98.5179 858.189 101.573 862.795 Q104.652 867.379 104.652 876.129 Q104.652 884.855 101.573 889.462 Q98.5179 894.045 92.7078 894.045 Q86.8976 894.045 83.8189 889.462 Q80.7634 884.855 80.7634 876.129 Q80.7634 867.379 83.8189 862.795 Q86.8976 858.189 92.7078 858.189 Z" fill="#000000" fill-rule="nonzero" fill-opacity="1" /><path clip-path="url(#clip780)" d="M104.652 852.29 L128.764 852.29 L128.764 855.488 L104.652 855.488 L104.652 852.29 Z" fill="#000000" fill-rule="nonzero" fill-opacity="1" /><path clip-path="url(#clip780)" d="M140.236 862.766 L153.496 862.766 L153.496 865.963 L135.666 865.963 L135.666 862.766 Q137.829 860.528 141.553 856.766 Q145.296 852.986 146.255 851.895 Q148.079 849.845 148.794 848.435 Q149.527 847.005 149.527 845.632 Q149.527 843.394 147.948 841.984 Q146.387 840.573 143.866 840.573 Q142.08 840.573 140.086 841.194 Q138.111 841.814 135.854 843.074 L135.854 839.238 Q138.149 838.316 140.142 837.846 Q142.136 837.376 143.791 837.376 Q148.155 837.376 150.75 839.557 Q153.345 841.739 153.345 845.388 Q153.345 847.118 152.687 848.679 Q152.048 850.221 150.336 852.328 Q149.866 852.873 147.346 855.488 Q144.826 858.083 140.236 862.766 Z" fill="#000000" fill-rule="nonzero" fill-opacity="1" /><path clip-path="url(#clip780)" d="M53.0552 683.838 L60.694 683.838 L60.694 657.473 L52.3839 659.139 L52.3839 654.88 L60.6477 653.213 L65.3236 653.213 L65.3236 683.838 L72.9625 683.838 L72.9625 687.773 L53.0552 687.773 L53.0552 683.838 Z" fill="#000000" fill-rule="nonzero" fill-opacity="1" /><path clip-path="url(#clip780)" d="M92.4068 656.292 Q88.7957 656.292 86.967 659.857 Q85.1615 663.398 85.1615 670.528 Q85.1615 677.634 86.967 681.199 Q88.7957 684.741 92.4068 684.741 Q96.0411 684.741 97.8466 681.199 Q99.6753 677.634 99.6753 670.528 Q99.6753 663.398 97.8466 659.857 Q96.0411 656.292 92.4068 656.292 M92.4068 652.588 Q98.217 652.588 101.273 657.195 Q104.351 661.778 104.351 670.528 Q104.351 679.255 101.273 683.861 Q98.217 688.445 92.4068 688.445 Q86.5967 688.445 83.518 683.861 Q80.4625 679.255 80.4625 670.528 Q80.4625 661.778 83.518 657.195 Q86.5967 652.588 92.4068 652.588 Z" fill="#000000" fill-rule="nonzero" fill-opacity="1" /><path clip-path="url(#clip780)" d="M104.351 646.69 L128.463 646.69 L128.463 649.887 L104.351 649.887 L104.351 646.69 Z" fill="#000000" fill-rule="nonzero" fill-opacity="1" /><path clip-path="url(#clip780)" d="M137.321 657.166 L143.528 657.166 L143.528 635.744 L136.776 637.098 L136.776 633.637 L143.49 632.283 L147.289 632.283 L147.289 657.166 L153.496 657.166 L153.496 660.363 L137.321 660.363 L137.321 657.166 Z" fill="#000000" fill-rule="nonzero" fill-opacity="1" /><path clip-path="url(#clip780)" d="M82.7903 478.238 L90.4291 478.238 L90.4291 451.872 L82.119 453.539 L82.119 449.279 L90.3828 447.613 L95.0587 447.613 L95.0587 478.238 L102.698 478.238 L102.698 482.173 L82.7903 482.173 L82.7903 478.238 Z" fill="#000000" fill-rule="nonzero" fill-opacity="1" /><path clip-path="url(#clip780)" d="M122.142 450.691 Q118.531 450.691 116.702 454.256 Q114.897 457.798 114.897 464.927 Q114.897 472.034 116.702 475.599 Q118.531 479.14 122.142 479.14 Q125.776 479.14 127.582 475.599 Q129.41 472.034 129.41 464.927 Q129.41 457.798 127.582 454.256 Q125.776 450.691 122.142 450.691 M122.142 446.988 Q127.952 446.988 131.008 451.594 Q134.086 456.178 134.086 464.927 Q134.086 473.654 131.008 478.261 Q127.952 482.844 122.142 482.844 Q116.332 482.844 113.253 478.261 Q110.198 473.654 110.198 464.927 Q110.198 456.178 113.253 451.594 Q116.332 446.988 122.142 446.988 Z" fill="#000000" fill-rule="nonzero" fill-opacity="1" /><path clip-path="url(#clip780)" d="M143.791 429.184 Q140.857 429.184 139.371 432.08 Q137.904 434.958 137.904 440.751 Q137.904 446.525 139.371 449.421 Q140.857 452.299 143.791 452.299 Q146.744 452.299 148.211 449.421 Q149.697 446.525 149.697 440.751 Q149.697 434.958 148.211 432.08 Q146.744 429.184 143.791 429.184 M143.791 426.175 Q148.512 426.175 150.994 429.917 Q153.496 433.641 153.496 440.751 Q153.496 447.841 150.994 451.584 Q148.512 455.308 143.791 455.308 Q139.07 455.308 136.569 451.584 Q134.086 447.841 134.086 440.751 Q134.086 433.641 136.569 429.917 Q139.07 426.175 143.791 426.175 Z" fill="#000000" fill-rule="nonzero" fill-opacity="1" /><path clip-path="url(#clip780)" d="M85.4798 272.637 L93.1186 272.637 L93.1186 246.271 L84.8085 247.938 L84.8085 243.679 L93.0723 242.012 L97.7482 242.012 L97.7482 272.637 L105.387 272.637 L105.387 276.572 L85.4798 276.572 L85.4798 272.637 Z" fill="#000000" fill-rule="nonzero" fill-opacity="1" /><path clip-path="url(#clip780)" d="M124.831 245.091 Q121.22 245.091 119.392 248.656 Q117.586 252.197 117.586 259.327 Q117.586 266.433 119.392 269.998 Q121.22 273.54 124.831 273.54 Q128.466 273.54 130.271 269.998 Q132.1 266.433 132.1 259.327 Q132.1 252.197 130.271 248.656 Q128.466 245.091 124.831 245.091 M124.831 241.387 Q130.642 241.387 133.697 245.994 Q136.776 250.577 136.776 259.327 Q136.776 268.054 133.697 272.66 Q130.642 277.244 124.831 277.244 Q119.021 277.244 115.943 272.66 Q112.887 268.054 112.887 259.327 Q112.887 250.577 115.943 245.994 Q119.021 241.387 124.831 241.387 Z" fill="#000000" fill-rule="nonzero" fill-opacity="1" /><path clip-path="url(#clip780)" d="M137.321 245.965 L143.528 245.965 L143.528 224.542 L136.776 225.897 L136.776 222.436 L143.49 221.082 L147.289 221.082 L147.289 245.965 L153.496 245.965 L153.496 249.162 L137.321 249.162 L137.321 245.965 Z" fill="#000000" fill-rule="nonzero" fill-opacity="1" /><path clip-path="url(#clip780)" d="M84.3701 67.0365 L92.009 67.0365 L92.009 40.6709 L83.6988 42.3376 L83.6988 38.0784 L91.9627 36.4117 L96.6386 36.4117 L96.6386 67.0365 L104.277 67.0365 L104.277 70.9717 L84.3701 70.9717 L84.3701 67.0365 Z" fill="#000000" fill-rule="nonzero" fill-opacity="1" /><path clip-path="url(#clip780)" d="M123.722 39.4904 Q120.111 39.4904 118.282 43.0552 Q116.476 46.5968 116.476 53.7264 Q116.476 60.8329 118.282 64.3977 Q120.111 67.9393 123.722 67.9393 Q127.356 67.9393 129.162 64.3977 Q130.99 60.8329 130.99 53.7264 Q130.99 46.5968 129.162 43.0552 Q127.356 39.4904 123.722 39.4904 M123.722 35.7867 Q129.532 35.7867 132.587 40.3932 Q135.666 44.9765 135.666 53.7264 Q135.666 62.4532 132.587 67.0597 Q129.532 71.643 123.722 71.643 Q117.912 71.643 114.833 67.0597 Q111.777 62.4532 111.777 53.7264 Q111.777 44.9765 114.833 40.3932 Q117.912 35.7867 123.722 35.7867 Z" fill="#000000" fill-rule="nonzero" fill-opacity="1" /><path clip-path="url(#clip780)" d="M140.236 40.364 L153.496 40.364 L153.496 43.5613 L135.666 43.5613 L135.666 40.364 Q137.829 38.1258 141.553 34.3643 Q145.296 30.5839 146.255 29.4931 Q148.079 27.443 148.794 26.0325 Q149.527 24.6031 149.527 23.2301 Q149.527 20.992 147.948 19.5814 Q146.387 18.1708 143.866 18.1708 Q142.08 18.1708 140.086 18.7915 Q138.111 19.4121 135.854 20.6722 L135.854 16.8355 Q138.149 15.9139 140.142 15.4437 Q142.136 14.9735 143.791 14.9735 Q148.155 14.9735 150.75 17.1552 Q153.345 19.3369 153.345 22.9856 Q153.345 24.7159 152.687 26.277 Q152.048 27.8192 150.336 29.9257 Q149.866 30.4711 147.346 33.0854 Q144.826 35.6808 140.236 40.364 Z" fill="#000000" fill-rule="nonzero" fill-opacity="1" /><path clip-path="url(#clip782)" d="Mnan nan L-3415.94 1486.45 L-3235.67 1486.45 Lnan nan Lnan nan Lnan nan  Z" fill="#009af9" fill-rule="evenodd" fill-opacity="1"/>
<polyline clip-path="url(#clip782)" style="stroke:#000000; stroke-linecap:round; stroke-linejoin:round; stroke-width:4; stroke-opacity:1; fill:none" points="-3415.94,1486.45 -3235.67,1486.45 "/>
<path clip-path="url(#clip782)" d="Mnan nan L-3235.67 1486.45 L-3055.39 1486.45 Lnan nan Lnan nan Lnan nan  Z" fill="#009af9" fill-rule="evenodd" fill-opacity="1"/>
<polyline clip-path="url(#clip782)" style="stroke:#000000; stroke-linecap:round; stroke-linejoin:round; stroke-width:4; stroke-opacity:1; fill:none" points="-3235.67,1486.45 -3055.39,1486.45 "/>
<path clip-path="url(#clip782)" d="M-3055.39 -99.9666 L-3055.39 1486.45 L-2875.12 1486.45 L-2875.12 -99.9666 L-3055.39 -99.9666 L-3055.39 -99.9666  Z" fill="#009af9" fill-rule="evenodd" fill-opacity="1"/>
<polyline clip-path="url(#clip782)" style="stroke:#000000; stroke-linecap:round; stroke-linejoin:round; stroke-width:4; stroke-opacity:1; fill:none" points="-3055.39,-99.9666 -3055.39,1486.45 -2875.12,1486.45 -2875.12,-99.9666 -3055.39,-99.9666 "/>
<path clip-path="url(#clip782)" d="M-2875.12 -223.104 L-2875.12 1486.45 L-2694.85 1486.45 L-2694.85 -223.104 L-2875.12 -223.104 L-2875.12 -223.104  Z" fill="#009af9" fill-rule="evenodd" fill-opacity="1"/>
<polyline clip-path="url(#clip782)" style="stroke:#000000; stroke-linecap:round; stroke-linejoin:round; stroke-width:4; stroke-opacity:1; fill:none" points="-2875.12,-223.104 -2875.12,1486.45 -2694.85,1486.45 -2694.85,-223.104 -2875.12,-223.104 "/>
<path clip-path="url(#clip782)" d="M-2694.85 -277.231 L-2694.85 1486.45 L-2514.58 1486.45 L-2514.58 -277.231 L-2694.85 -277.231 L-2694.85 -277.231  Z" fill="#009af9" fill-rule="evenodd" fill-opacity="1"/>
<polyline clip-path="url(#clip782)" style="stroke:#000000; stroke-linecap:round; stroke-linejoin:round; stroke-width:4; stroke-opacity:1; fill:none" points="-2694.85,-277.231 -2694.85,1486.45 -2514.58,1486.45 -2514.58,-277.231 -2694.85,-277.231 "/>
<path clip-path="url(#clip782)" d="M-2514.58 -308.954 L-2514.58 1486.45 L-2334.31 1486.45 L-2334.31 -308.954 L-2514.58 -308.954 L-2514.58 -308.954  Z" fill="#009af9" fill-rule="evenodd" fill-opacity="1"/>
<polyline clip-path="url(#clip782)" style="stroke:#000000; stroke-linecap:round; stroke-linejoin:round; stroke-width:4; stroke-opacity:1; fill:none" points="-2514.58,-308.954 -2514.58,1486.45 -2334.31,1486.45 -2334.31,-308.954 -2514.58,-308.954 "/>
<path clip-path="url(#clip782)" d="M-2334.31 -331.7 L-2334.31 1486.45 L-2154.04 1486.45 L-2154.04 -331.7 L-2334.31 -331.7 L-2334.31 -331.7  Z" fill="#009af9" fill-rule="evenodd" fill-opacity="1"/>
<polyline clip-path="url(#clip782)" style="stroke:#000000; stroke-linecap:round; stroke-linejoin:round; stroke-width:4; stroke-opacity:1; fill:none" points="-2334.31,-331.7 -2334.31,1486.45 -2154.04,1486.45 -2154.04,-331.7 -2334.31,-331.7 "/>
<path clip-path="url(#clip782)" d="M-2154.04 -344.876 L-2154.04 1486.45 L-1973.76 1486.45 L-1973.76 -344.876 L-2154.04 -344.876 L-2154.04 -344.876  Z" fill="#009af9" fill-rule="evenodd" fill-opacity="1"/>
<polyline clip-path="url(#clip782)" style="stroke:#000000; stroke-linecap:round; stroke-linejoin:round; stroke-width:4; stroke-opacity:1; fill:none" points="-2154.04,-344.876 -2154.04,1486.45 -1973.76,1486.45 -1973.76,-344.876 -2154.04,-344.876 "/>
<path clip-path="url(#clip782)" d="M-1973.76 -353.421 L-1973.76 1486.45 L-1793.49 1486.45 L-1793.49 -353.421 L-1973.76 -353.421 L-1973.76 -353.421  Z" fill="#009af9" fill-rule="evenodd" fill-opacity="1"/>
<polyline clip-path="url(#clip782)" style="stroke:#000000; stroke-linecap:round; stroke-linejoin:round; stroke-width:4; stroke-opacity:1; fill:none" points="-1973.76,-353.421 -1973.76,1486.45 -1793.49,1486.45 -1793.49,-353.421 -1973.76,-353.421 "/>
<path clip-path="url(#clip782)" d="M-1793.49 -354.281 L-1793.49 1486.45 L-1613.22 1486.45 L-1613.22 -354.281 L-1793.49 -354.281 L-1793.49 -354.281  Z" fill="#009af9" fill-rule="evenodd" fill-opacity="1"/>
<polyline clip-path="url(#clip782)" style="stroke:#000000; stroke-linecap:round; stroke-linejoin:round; stroke-width:4; stroke-opacity:1; fill:none" points="-1793.49,-354.281 -1793.49,1486.45 -1613.22,1486.45 -1613.22,-354.281 -1793.49,-354.281 "/>
<path clip-path="url(#clip782)" d="M-1613.22 -355.339 L-1613.22 1486.45 L-1432.95 1486.45 L-1432.95 -355.339 L-1613.22 -355.339 L-1613.22 -355.339  Z" fill="#009af9" fill-rule="evenodd" fill-opacity="1"/>
<polyline clip-path="url(#clip782)" style="stroke:#000000; stroke-linecap:round; stroke-linejoin:round; stroke-width:4; stroke-opacity:1; fill:none" points="-1613.22,-355.339 -1613.22,1486.45 -1432.95,1486.45 -1432.95,-355.339 -1613.22,-355.339 "/>
<path clip-path="url(#clip782)" d="M-1432.95 -350.49 L-1432.95 1486.45 L-1252.68 1486.45 L-1252.68 -350.49 L-1432.95 -350.49 L-1432.95 -350.49  Z" fill="#009af9" fill-rule="evenodd" fill-opacity="1"/>
<polyline clip-path="url(#clip782)" style="stroke:#000000; stroke-linecap:round; stroke-linejoin:round; stroke-width:4; stroke-opacity:1; fill:none" points="-1432.95,-350.49 -1432.95,1486.45 -1252.68,1486.45 -1252.68,-350.49 -1432.95,-350.49 "/>
<path clip-path="url(#clip782)" d="M-1252.68 -346.248 L-1252.68 1486.45 L-1072.41 1486.45 L-1072.41 -346.248 L-1252.68 -346.248 L-1252.68 -346.248  Z" fill="#009af9" fill-rule="evenodd" fill-opacity="1"/>
<polyline clip-path="url(#clip782)" style="stroke:#000000; stroke-linecap:round; stroke-linejoin:round; stroke-width:4; stroke-opacity:1; fill:none" points="-1252.68,-346.248 -1252.68,1486.45 -1072.41,1486.45 -1072.41,-346.248 -1252.68,-346.248 "/>
<path clip-path="url(#clip782)" d="M-1072.41 -338.662 L-1072.41 1486.45 L-892.134 1486.45 L-892.134 -338.662 L-1072.41 -338.662 L-1072.41 -338.662  Z" fill="#009af9" fill-rule="evenodd" fill-opacity="1"/>
<polyline clip-path="url(#clip782)" style="stroke:#000000; stroke-linecap:round; stroke-linejoin:round; stroke-width:4; stroke-opacity:1; fill:none" points="-1072.41,-338.662 -1072.41,1486.45 -892.134,1486.45 -892.134,-338.662 -1072.41,-338.662 "/>
<path clip-path="url(#clip782)" d="M-892.134 -323.379 L-892.134 1486.45 L-711.862 1486.45 L-711.862 -323.379 L-892.134 -323.379 L-892.134 -323.379  Z" fill="#009af9" fill-rule="evenodd" fill-opacity="1"/>
<polyline clip-path="url(#clip782)" style="stroke:#000000; stroke-linecap:round; stroke-linejoin:round; stroke-width:4; stroke-opacity:1; fill:none" points="-892.134,-323.379 -892.134,1486.45 -711.862,1486.45 -711.862,-323.379 -892.134,-323.379 "/>
<path clip-path="url(#clip782)" d="M-711.862 -307.722 L-711.862 1486.45 L-531.591 1486.45 L-531.591 -307.722 L-711.862 -307.722 L-711.862 -307.722  Z" fill="#009af9" fill-rule="evenodd" fill-opacity="1"/>
<polyline clip-path="url(#clip782)" style="stroke:#000000; stroke-linecap:round; stroke-linejoin:round; stroke-width:4; stroke-opacity:1; fill:none" points="-711.862,-307.722 -711.862,1486.45 -531.591,1486.45 -531.591,-307.722 -711.862,-307.722 "/>
<path clip-path="url(#clip782)" d="M-531.591 -286.942 L-531.591 1486.45 L-351.319 1486.45 L-351.319 -286.942 L-531.591 -286.942 L-531.591 -286.942  Z" fill="#009af9" fill-rule="evenodd" fill-opacity="1"/>
<polyline clip-path="url(#clip782)" style="stroke:#000000; stroke-linecap:round; stroke-linejoin:round; stroke-width:4; stroke-opacity:1; fill:none" points="-531.591,-286.942 -531.591,1486.45 -351.319,1486.45 -351.319,-286.942 -531.591,-286.942 "/>
<path clip-path="url(#clip782)" d="M-351.319 -261.88 L-351.319 1486.45 L-171.047 1486.45 L-171.047 -261.88 L-351.319 -261.88 L-351.319 -261.88  Z" fill="#009af9" fill-rule="evenodd" fill-opacity="1"/>
<polyline clip-path="url(#clip782)" style="stroke:#000000; stroke-linecap:round; stroke-linejoin:round; stroke-width:4; stroke-opacity:1; fill:none" points="-351.319,-261.88 -351.319,1486.45 -171.047,1486.45 -171.047,-261.88 -351.319,-261.88 "/>
<path clip-path="url(#clip782)" d="M-171.047 -230.884 L-171.047 1486.45 L9.22425 1486.45 L9.22425 -230.884 L-171.047 -230.884 L-171.047 -230.884  Z" fill="#009af9" fill-rule="evenodd" fill-opacity="1"/>
<polyline clip-path="url(#clip782)" style="stroke:#000000; stroke-linecap:round; stroke-linejoin:round; stroke-width:4; stroke-opacity:1; fill:none" points="-171.047,-230.884 -171.047,1486.45 9.22425,1486.45 9.22425,-230.884 -171.047,-230.884 "/>
<path clip-path="url(#clip782)" d="M9.22425 -196.911 L9.22425 1486.45 L189.496 1486.45 L189.496 -196.911 L9.22425 -196.911 L9.22425 -196.911  Z" fill="#009af9" fill-rule="evenodd" fill-opacity="1"/>
<polyline clip-path="url(#clip782)" style="stroke:#000000; stroke-linecap:round; stroke-linejoin:round; stroke-width:4; stroke-opacity:1; fill:none" points="9.22425,-196.911 9.22425,1486.45 189.496,1486.45 189.496,-196.911 9.22425,-196.911 "/>
<path clip-path="url(#clip782)" d="M189.496 -155.545 L189.496 1486.45 L369.768 1486.45 L369.768 -155.545 L189.496 -155.545 L189.496 -155.545  Z" fill="#009af9" fill-rule="evenodd" fill-opacity="1"/>
<polyline clip-path="url(#clip782)" style="stroke:#000000; stroke-linecap:round; stroke-linejoin:round; stroke-width:4; stroke-opacity:1; fill:none" points="189.496,-155.545 189.496,1486.45 369.768,1486.45 369.768,-155.545 189.496,-155.545 "/>
<path clip-path="url(#clip782)" d="M369.768 -114.22 L369.768 1486.45 L550.039 1486.45 L550.039 -114.22 L369.768 -114.22 L369.768 -114.22  Z" fill="#009af9" fill-rule="evenodd" fill-opacity="1"/>
<polyline clip-path="url(#clip782)" style="stroke:#000000; stroke-linecap:round; stroke-linejoin:round; stroke-width:4; stroke-opacity:1; fill:none" points="369.768,-114.22 369.768,1486.45 550.039,1486.45 550.039,-114.22 369.768,-114.22 "/>
<path clip-path="url(#clip782)" d="M550.039 -49.0484 L550.039 1486.45 L730.311 1486.45 L730.311 -49.0484 L550.039 -49.0484 L550.039 -49.0484  Z" fill="#009af9" fill-rule="evenodd" fill-opacity="1"/>
<polyline clip-path="url(#clip782)" style="stroke:#000000; stroke-linecap:round; stroke-linejoin:round; stroke-width:4; stroke-opacity:1; fill:none" points="550.039,-49.0484 550.039,1486.45 730.311,1486.45 730.311,-49.0484 550.039,-49.0484 "/>
<path clip-path="url(#clip782)" d="M730.311 -0.136328 L730.311 1486.45 L910.583 1486.45 L910.583 -0.136328 L730.311 -0.136328 L730.311 -0.136328  Z" fill="#009af9" fill-rule="evenodd" fill-opacity="1"/>
<polyline clip-path="url(#clip782)" style="stroke:#000000; stroke-linecap:round; stroke-linejoin:round; stroke-width:4; stroke-opacity:1; fill:none" points="730.311,-0.136328 730.311,1486.45 910.583,1486.45 910.583,-0.136328 730.311,-0.136328 "/>
<path clip-path="url(#clip782)" d="M910.583 85.7092 L910.583 1486.45 L1090.85 1486.45 L1090.85 85.7092 L910.583 85.7092 L910.583 85.7092  Z" fill="#009af9" fill-rule="evenodd" fill-opacity="1"/>
<polyline clip-path="url(#clip782)" style="stroke:#000000; stroke-linecap:round; stroke-linejoin:round; stroke-width:4; stroke-opacity:1; fill:none" points="910.583,85.7092 910.583,1486.45 1090.85,1486.45 1090.85,85.7092 910.583,85.7092 "/>
<path clip-path="url(#clip782)" d="M1090.85 210.877 L1090.85 1486.45 L1271.13 1486.45 L1271.13 210.877 L1090.85 210.877 L1090.85 210.877  Z" fill="#009af9" fill-rule="evenodd" fill-opacity="1"/>
<polyline clip-path="url(#clip782)" style="stroke:#000000; stroke-linecap:round; stroke-linejoin:round; stroke-width:4; stroke-opacity:1; fill:none" points="1090.85,210.877 1090.85,1486.45 1271.13,1486.45 1271.13,210.877 1090.85,210.877 "/>
<path clip-path="url(#clip782)" d="M1271.13 334.661 L1271.13 1486.45 L1451.4 1486.45 L1451.4 334.661 L1271.13 334.661 L1271.13 334.661  Z" fill="#009af9" fill-rule="evenodd" fill-opacity="1"/>
<polyline clip-path="url(#clip782)" style="stroke:#000000; stroke-linecap:round; stroke-linejoin:round; stroke-width:4; stroke-opacity:1; fill:none" points="1271.13,334.661 1271.13,1486.45 1451.4,1486.45 1451.4,334.661 1271.13,334.661 "/>
<path clip-path="url(#clip782)" d="Mnan nan L1451.4 1486.45 L1631.67 1486.45 Lnan nan Lnan nan Lnan nan  Z" fill="#009af9" fill-rule="evenodd" fill-opacity="1"/>
<polyline clip-path="url(#clip782)" style="stroke:#000000; stroke-linecap:round; stroke-linejoin:round; stroke-width:4; stroke-opacity:1; fill:none" points="1451.4,1486.45 1631.67,1486.45 "/>
<path clip-path="url(#clip782)" d="Mnan nan L1631.67 1486.45 L1811.94 1486.45 Lnan nan Lnan nan Lnan nan  Z" fill="#009af9" fill-rule="evenodd" fill-opacity="1"/>
<polyline clip-path="url(#clip782)" style="stroke:#000000; stroke-linecap:round; stroke-linejoin:round; stroke-width:4; stroke-opacity:1; fill:none" points="1631.67,1486.45 1811.94,1486.45 "/>
<path clip-path="url(#clip782)" d="Mnan nan L1811.94 1486.45 L1992.21 1486.45 Lnan nan Lnan nan Lnan nan  Z" fill="#009af9" fill-rule="evenodd" fill-opacity="1"/>
<polyline clip-path="url(#clip782)" style="stroke:#000000; stroke-linecap:round; stroke-linejoin:round; stroke-width:4; stroke-opacity:1; fill:none" points="1811.94,1486.45 1992.21,1486.45 "/>
<path clip-path="url(#clip782)" d="Mnan nan L1992.21 1486.45 L2172.48 1486.45 Lnan nan Lnan nan Lnan nan  Z" fill="#009af9" fill-rule="evenodd" fill-opacity="1"/>
<polyline clip-path="url(#clip782)" style="stroke:#000000; stroke-linecap:round; stroke-linejoin:round; stroke-width:4; stroke-opacity:1; fill:none" points="1992.21,1486.45 2172.48,1486.45 "/>
<path clip-path="url(#clip782)" d="Mnan nan L2172.48 1486.45 L2352.76 1486.45 Lnan nan Lnan nan Lnan nan  Z" fill="#009af9" fill-rule="evenodd" fill-opacity="1"/>
<polyline clip-path="url(#clip782)" style="stroke:#000000; stroke-linecap:round; stroke-linejoin:round; stroke-width:4; stroke-opacity:1; fill:none" points="2172.48,1486.45 2352.76,1486.45 "/>
<path clip-path="url(#clip782)" d="Mnan nan L2352.76 1486.45 L2533.03 1486.45 Lnan nan Lnan nan Lnan nan  Z" fill="#009af9" fill-rule="evenodd" fill-opacity="1"/>
<polyline clip-path="url(#clip782)" style="stroke:#000000; stroke-linecap:round; stroke-linejoin:round; stroke-width:4; stroke-opacity:1; fill:none" points="2352.76,1486.45 2533.03,1486.45 "/>
<path clip-path="url(#clip782)" d="Mnan nan L2533.03 1486.45 L2713.3 1486.45 Lnan nan Lnan nan Lnan nan  Z" fill="#009af9" fill-rule="evenodd" fill-opacity="1"/>
<polyline clip-path="url(#clip782)" style="stroke:#000000; stroke-linecap:round; stroke-linejoin:round; stroke-width:4; stroke-opacity:1; fill:none" points="2533.03,1486.45 2713.3,1486.45 "/>
<circle clip-path="url(#clip782)" style="fill:#009af9; stroke:none; fill-opacity:0" cx="1000.72" cy="85.7092" r="2"/>
<circle clip-path="url(#clip782)" style="fill:#009af9; stroke:none; fill-opacity:0" cx="1180.99" cy="210.877" r="2"/>
<circle clip-path="url(#clip782)" style="fill:#009af9; stroke:none; fill-opacity:0" cx="1361.26" cy="334.661" r="2"/>
<polyline clip-path="url(#clip782)" style="stroke:#e26f46; stroke-linecap:round; stroke-linejoin:round; stroke-width:16; stroke-opacity:1; fill:none" points="-3145.53,617.912 -2965.26,-86.6 -2784.99,-225.062 -2604.71,-276.282 -2424.44,-309.377 -2244.17,-331.157 -2063.9,-345.278 -1883.63,-352.2 -1703.36,-354.214 -1523.08,-353.729 -1342.81,-351.864 -1162.54,-346.509 -982.27,-337.746 -801.998,-325.073 -621.727,-308.246 -441.455,-287.32 -261.183,-262.607 -80.9116,-232.739 99.3601,-198.021 279.632,-157.968 459.903,-110.337 640.175,-54.3103 820.447,13.2871 1000.72,98.3879 1180.99,198.992 1361.26,322.082 1541.53,412.392 1721.81,454.21 1902.08,540.868 2082.35,726.8 2262.62,907.414 2442.89,927.2 2623.16,954.468 "/>
<polyline clip-path="url(#clip782)" style="stroke:#3da44d; stroke-linecap:round; stroke-linejoin:round; stroke-width:16; stroke-opacity:1; fill:none" points="-2965.26,1313.41 -2784.99,1185.08 -2604.71,1133.66 -2424.44,1092.12 -2244.17,1054.45 -2063.9,1025.27 -1883.63,996.174 -1703.36,970.899 -1523.08,947.974 -1342.81,926.603 -1162.54,905.876 -982.27,886.838 -801.998,869 -621.727,852.671 -441.455,835.693 -261.183,817.814 -80.9116,800.018 99.3601,778.522 279.632,753.201 459.903,723.107 640.175,687.011 820.447,646.257 1000.72,601.479 1180.99,553.811 1361.26,504.256 1541.53,462.54 1721.81,461.891 1902.08,546.46 2082.35,750.211 2262.62,1098.21 2442.89,1569.97 "/>
<path clip-path="url(#clip780)" d="M1931.1 302.578 L2280.65 302.578 L2280.65 95.2176 L1931.1 95.2176  Z" fill="#ffffff" fill-rule="evenodd" fill-opacity="1"/>
<polyline clip-path="url(#clip780)" style="stroke:#000000; stroke-linecap:round; stroke-linejoin:round; stroke-width:4; stroke-opacity:1; fill:none" points="1931.1,302.578 2280.65,302.578 2280.65,95.2176 1931.1,95.2176 1931.1,302.578 "/>
<path clip-path="url(#clip780)" d="M1955.14 167.794 L2099.36 167.794 L2099.36 126.322 L1955.14 126.322 L1955.14 167.794  Z" fill="#009af9" fill-rule="evenodd" fill-opacity="1"/>
<polyline clip-path="url(#clip780)" style="stroke:#000000; stroke-linecap:round; stroke-linejoin:round; stroke-width:4; stroke-opacity:1; fill:none" points="1955.14,167.794 2099.36,167.794 2099.36,126.322 1955.14,126.322 1955.14,167.794 "/>
<path clip-path="url(#clip780)" d="M2142.31 142.347 L2142.31 128.319 L2146.57 128.319 L2146.57 164.338 L2142.31 164.338 L2142.31 160.449 Q2140.96 162.763 2138.9 163.898 Q2136.87 165.009 2134 165.009 Q2129.3 165.009 2126.33 161.259 Q2123.39 157.509 2123.39 151.398 Q2123.39 145.287 2126.33 141.537 Q2129.3 137.787 2134 137.787 Q2136.87 137.787 2138.9 138.921 Q2140.96 140.032 2142.31 142.347 M2127.79 151.398 Q2127.79 156.097 2129.71 158.782 Q2131.66 161.444 2135.04 161.444 Q2138.42 161.444 2140.36 158.782 Q2142.31 156.097 2142.31 151.398 Q2142.31 146.699 2140.36 144.037 Q2138.42 141.352 2135.04 141.352 Q2131.66 141.352 2129.71 144.037 Q2127.79 146.699 2127.79 151.398 Z" fill="#000000" fill-rule="nonzero" fill-opacity="1" /><path clip-path="url(#clip780)" d="M2167.12 151.305 Q2161.96 151.305 2159.97 152.486 Q2157.98 153.666 2157.98 156.514 Q2157.98 158.782 2159.46 160.125 Q2160.96 161.444 2163.53 161.444 Q2167.07 161.444 2169.2 158.944 Q2171.36 156.421 2171.36 152.254 L2171.36 151.305 L2167.12 151.305 M2175.62 149.546 L2175.62 164.338 L2171.36 164.338 L2171.36 160.402 Q2169.9 162.763 2167.72 163.898 Q2165.55 165.009 2162.4 165.009 Q2158.42 165.009 2156.06 162.787 Q2153.72 160.541 2153.72 156.791 Q2153.72 152.416 2156.63 150.194 Q2159.57 147.972 2165.38 147.972 L2171.36 147.972 L2171.36 147.555 Q2171.36 144.615 2169.41 143.018 Q2167.49 141.398 2164 141.398 Q2161.77 141.398 2159.67 141.93 Q2157.56 142.463 2155.62 143.527 L2155.62 139.592 Q2157.95 138.69 2160.15 138.25 Q2162.35 137.787 2164.44 137.787 Q2170.06 137.787 2172.84 140.703 Q2175.62 143.62 2175.62 149.546 Z" fill="#000000" fill-rule="nonzero" fill-opacity="1" /><path clip-path="url(#clip780)" d="M2188.6 131.051 L2188.6 138.412 L2197.38 138.412 L2197.38 141.722 L2188.6 141.722 L2188.6 155.796 Q2188.6 158.967 2189.46 159.87 Q2190.34 160.773 2193 160.773 L2197.38 160.773 L2197.38 164.338 L2193 164.338 Q2188.07 164.338 2186.19 162.509 Q2184.32 160.657 2184.32 155.796 L2184.32 141.722 L2181.19 141.722 L2181.19 138.412 L2184.32 138.412 L2184.32 131.051 L2188.6 131.051 Z" fill="#000000" fill-rule="nonzero" fill-opacity="1" /><path clip-path="url(#clip780)" d="M2214.76 151.305 Q2209.6 151.305 2207.61 152.486 Q2205.62 153.666 2205.62 156.514 Q2205.62 158.782 2207.1 160.125 Q2208.6 161.444 2211.17 161.444 Q2214.71 161.444 2216.84 158.944 Q2219 156.421 2219 152.254 L2219 151.305 L2214.76 151.305 M2223.25 149.546 L2223.25 164.338 L2219 164.338 L2219 160.402 Q2217.54 162.763 2215.36 163.898 Q2213.19 165.009 2210.04 165.009 Q2206.06 165.009 2203.69 162.787 Q2201.36 160.541 2201.36 156.791 Q2201.36 152.416 2204.27 150.194 Q2207.21 147.972 2213.02 147.972 L2219 147.972 L2219 147.555 Q2219 144.615 2217.05 143.018 Q2215.13 141.398 2211.63 141.398 Q2209.41 141.398 2207.31 141.93 Q2205.2 142.463 2203.25 143.527 L2203.25 139.592 Q2205.59 138.69 2207.79 138.25 Q2209.99 137.787 2212.07 137.787 Q2217.7 137.787 2220.48 140.703 Q2223.25 143.62 2223.25 149.546 Z" fill="#000000" fill-rule="nonzero" fill-opacity="1" /><polyline clip-path="url(#clip780)" style="stroke:#e26f46; stroke-linecap:round; stroke-linejoin:round; stroke-width:16; stroke-opacity:1; fill:none" points="1955.14,198.898 2099.36,198.898 "/>
<path clip-path="url(#clip780)" d="M2139.9 180.159 L2139.9 183.701 L2135.82 183.701 Q2133.53 183.701 2132.63 184.627 Q2131.75 185.553 2131.75 187.96 L2131.75 190.252 L2138.76 190.252 L2138.76 193.562 L2131.75 193.562 L2131.75 216.178 L2127.47 216.178 L2127.47 193.562 L2123.39 193.562 L2123.39 190.252 L2127.47 190.252 L2127.47 188.446 Q2127.47 184.118 2129.48 182.15 Q2131.5 180.159 2135.87 180.159 L2139.9 180.159 Z" fill="#000000" fill-rule="nonzero" fill-opacity="1" /><path clip-path="url(#clip780)" d="M2143.46 190.252 L2147.72 190.252 L2147.72 216.178 L2143.46 216.178 L2143.46 190.252 M2143.46 180.159 L2147.72 180.159 L2147.72 185.553 L2143.46 185.553 L2143.46 180.159 Z" fill="#000000" fill-rule="nonzero" fill-opacity="1" /><path clip-path="url(#clip780)" d="M2160.85 182.891 L2160.85 190.252 L2169.62 190.252 L2169.62 193.562 L2160.85 193.562 L2160.85 207.636 Q2160.85 210.807 2161.7 211.71 Q2162.58 212.613 2165.25 212.613 L2169.62 212.613 L2169.62 216.178 L2165.25 216.178 Q2160.32 216.178 2158.44 214.349 Q2156.57 212.497 2156.57 207.636 L2156.57 193.562 L2153.44 193.562 L2153.44 190.252 L2156.57 190.252 L2156.57 182.891 L2160.85 182.891 Z" fill="#000000" fill-rule="nonzero" fill-opacity="1" /><polyline clip-path="url(#clip780)" style="stroke:#3da44d; stroke-linecap:round; stroke-linejoin:round; stroke-width:16; stroke-opacity:1; fill:none" points="1955.14,250.738 2099.36,250.738 "/>
<path clip-path="url(#clip780)" d="M2141.82 242.856 L2141.82 246.883 Q2140.01 245.957 2138.07 245.495 Q2136.13 245.032 2134.04 245.032 Q2130.87 245.032 2129.27 246.004 Q2127.7 246.976 2127.7 248.92 Q2127.7 250.402 2128.83 251.258 Q2129.97 252.092 2133.39 252.856 L2134.85 253.18 Q2139.39 254.152 2141.29 255.934 Q2143.21 257.694 2143.21 260.865 Q2143.21 264.476 2140.34 266.582 Q2137.49 268.689 2132.49 268.689 Q2130.41 268.689 2128.14 268.272 Q2125.89 267.879 2123.39 267.068 L2123.39 262.67 Q2125.76 263.897 2128.05 264.522 Q2130.34 265.124 2132.58 265.124 Q2135.59 265.124 2137.21 264.106 Q2138.83 263.064 2138.83 261.189 Q2138.83 259.453 2137.65 258.527 Q2136.5 257.601 2132.54 256.744 L2131.06 256.397 Q2127.1 255.564 2125.34 253.851 Q2123.58 252.115 2123.58 249.106 Q2123.58 245.448 2126.17 243.458 Q2128.76 241.467 2133.53 241.467 Q2135.89 241.467 2137.98 241.814 Q2140.06 242.161 2141.82 242.856 Z" fill="#000000" fill-rule="nonzero" fill-opacity="1" /><path clip-path="url(#clip780)" d="M2149.99 242.092 L2154.25 242.092 L2154.25 268.018 L2149.99 268.018 L2149.99 242.092 M2149.99 231.999 L2154.25 231.999 L2154.25 237.393 L2149.99 237.393 L2149.99 231.999 Z" fill="#000000" fill-rule="nonzero" fill-opacity="1" /><path clip-path="url(#clip780)" d="M2180.22 254.754 Q2180.22 250.124 2178.3 247.578 Q2176.4 245.032 2172.95 245.032 Q2169.53 245.032 2167.61 247.578 Q2165.71 250.124 2165.71 254.754 Q2165.71 259.36 2167.61 261.906 Q2169.53 264.453 2172.95 264.453 Q2176.4 264.453 2178.3 261.906 Q2180.22 259.36 2180.22 254.754 M2184.48 264.8 Q2184.48 271.42 2181.54 274.638 Q2178.6 277.879 2172.54 277.879 Q2170.29 277.879 2168.3 277.531 Q2166.31 277.207 2164.44 276.513 L2164.44 272.369 Q2166.31 273.388 2168.14 273.874 Q2169.97 274.36 2171.87 274.36 Q2176.06 274.36 2178.14 272.161 Q2180.22 269.985 2180.22 265.564 L2180.22 263.457 Q2178.9 265.749 2176.84 266.883 Q2174.78 268.018 2171.91 268.018 Q2167.14 268.018 2164.23 264.383 Q2161.31 260.749 2161.31 254.754 Q2161.31 248.735 2164.23 245.101 Q2167.14 241.467 2171.91 241.467 Q2174.78 241.467 2176.84 242.601 Q2178.9 243.735 2180.22 246.027 L2180.22 242.092 L2184.48 242.092 L2184.48 264.8 Z" fill="#000000" fill-rule="nonzero" fill-opacity="1" /><path clip-path="url(#clip780)" d="M2214.81 252.369 L2214.81 268.018 L2210.55 268.018 L2210.55 252.508 Q2210.55 248.828 2209.11 246.999 Q2207.68 245.17 2204.81 245.17 Q2201.36 245.17 2199.37 247.37 Q2197.38 249.569 2197.38 253.365 L2197.38 268.018 L2193.09 268.018 L2193.09 242.092 L2197.38 242.092 L2197.38 246.12 Q2198.9 243.782 2200.96 242.624 Q2203.05 241.467 2205.75 241.467 Q2210.22 241.467 2212.51 244.245 Q2214.81 246.999 2214.81 252.369 Z" fill="#000000" fill-rule="nonzero" fill-opacity="1" /><path clip-path="url(#clip780)" d="M2235.08 254.985 Q2229.92 254.985 2227.93 256.166 Q2225.94 257.346 2225.94 260.194 Q2225.94 262.462 2227.42 263.805 Q2228.93 265.124 2231.5 265.124 Q2235.04 265.124 2237.17 262.624 Q2239.32 260.101 2239.32 255.934 L2239.32 254.985 L2235.08 254.985 M2243.58 253.226 L2243.58 268.018 L2239.32 268.018 L2239.32 264.082 Q2237.86 266.443 2235.69 267.578 Q2233.51 268.689 2230.36 268.689 Q2226.38 268.689 2224.02 266.467 Q2221.68 264.221 2221.68 260.471 Q2221.68 256.096 2224.6 253.874 Q2227.54 251.652 2233.35 251.652 L2239.32 251.652 L2239.32 251.235 Q2239.32 248.295 2237.38 246.698 Q2235.45 245.078 2231.96 245.078 Q2229.74 245.078 2227.63 245.61 Q2225.52 246.143 2223.58 247.207 L2223.58 243.272 Q2225.92 242.37 2228.12 241.93 Q2230.31 241.467 2232.4 241.467 Q2238.02 241.467 2240.8 244.383 Q2243.58 247.3 2243.58 253.226 Z" fill="#000000" fill-rule="nonzero" fill-opacity="1" /><path clip-path="url(#clip780)" d="M2252.35 231.999 L2256.61 231.999 L2256.61 268.018 L2252.35 268.018 L2252.35 231.999 Z" fill="#000000" fill-rule="nonzero" fill-opacity="1" /></svg>
